<svg width="471" height="315" viewBox="0 0 471 315" xmlns="http://www.w3.org/2000/svg"><g fill="none" fill-rule="evenodd"><path d="M27.675 88.316c9.49-6.939 28.039 1.657 41.397 19.182 13.359 17.526 16.5 37.387 7.012 44.327-.214.156-48.629-63.347-48.409-63.509z" fill="#A4CCBD"/><path d="M79.38 151.775c0-2.397-.32-4.344-2.14-4.344l-2.462.063c-1.82 0-2.115 1.947-2.115 4.345l-3.195 158.225c0 2.398 1.478 4.345 3.3 4.345h6.598c1.821 0 3.3-1.947 3.3-4.345L79.38 151.775z" fill="#EFDBA5"/><path d="M139.856 97.539c-8.087-8.355-27.669-2.974-43.702 12.008-16.034 14.98-22.486 33.924-14.4 42.278.092.095 37.044-34.387 37.044-34.387s-1.303-4.402-.646-5.185c.38-.454 5.725.442 5.725.442l4.313-4.03s-1.196-4.053-.517-4.705c.497-.476 4.866.606 4.866.606s7.359-6.984 7.317-7.027z" fill="#A2CABB"/><path d="M117.858 80.743c-10.095-5.504-26.732 5.458-37.13 24.466-10.397 19.009-10.642 38.912-.547 44.419.227.124 37.912-68.757 37.677-68.885z" fill="#91C2B1"/><path d="M3.479 116.078c5.026-10.212 25.112-10.985 44.826-1.727 19.714 9.257 31.638 25.064 26.612 35.276-.08.16-56.288-26.271-56.288-26.271s-.224-4.958-.703-5.186c-.48-.227-5.215 2.403-5.215 2.403s-9.258-4.444-9.232-4.495z" fill="#91C2B1"/><path d="M154.153 136.623c-2.097-11.213-21.253-17.157-42.75-13.266-21.497 3.89-37.247 16.154-35.149 27.367.033.177 61.335-10.952 61.335-10.952s1.55-4.755 2.073-4.853c.523-.097 4.381 3.682 4.381 3.682s10.12-1.921 10.11-1.978z" fill="#91C2B1"/><path d="M.18 149.461c0-11.427 17.74-20.706 39.593-20.706 21.852 0 39.593 9.28 39.593 20.706 0 .126-44.97.165-44.97.165s-2.23-4.63-3.255-4.63c-1.217.001-3.362 4.632-3.362 4.632h-8.633s-2.215-4.714-3.015-4.718c-1.098-.003-3.388 4.7-3.388 4.7S.18 149.53.18 149.461z" fill="#A9CDBF"/><path d="M25.713 179.288c-4.724-8.018 3.462-21.913 18.268-31.01 14.806-9.096 30.661-9.972 35.385-1.954.045.077-25.606 15.895-25.606 15.895s-3.315-2.126-3.9-1.766c-.818.504-.23 4.308-.23 4.308l-7.67 4.72s-3.094-2.233-3.72-1.85c-.665.406-.146 4.211-.146 4.211s-12.347 7.504-12.381 7.446z" fill="#91C2B1"/><path d="M125.952 169.401c3.358-7.397-5.584-18.394-19.957-24.542-14.373-6.146-28.77-5.13-32.128 2.268-.033.072 21.709 9.36 21.709 9.36s3.24-2.021 3.66-1.683c.353.283.494 3.534.494 3.534l4.858 2.067c.114.048 2.598-2.258 3.34-1.942.68.288.678 3.647.887 3.738 7.543 3.26 17.113 7.252 17.137 7.2z" fill="#AECFC3"/><path d="M69.468 138.642c5.463 0 9.898 4.43 9.898 9.886 0 5.457-4.435 9.888-9.898 9.888s-9.899-4.43-9.899-9.888c0-5.457 4.436-9.886 9.899-9.886z" fill="#B1D6B9"/><path d="M83.215 148.53c4.553 0 8.249 3.691 8.249 8.238 0 4.548-3.696 8.24-8.249 8.24-4.552 0-8.248-3.692-8.248-8.24 0-4.547 3.696-8.239 8.248-8.239z" fill="#7AC380"/><g><path d="M463.786 109.488c4.607 13.002 7.114 26.992 7.114 41.562 0 68.814-55.934 124.684-124.829 124.684s-124.829-55.87-124.829-124.684c0-68.816 55.934-124.685 124.83-124.685 28.59 0 54.948 9.621 76.003 25.797h-54.592c-8.65 0-15.673 7.064-15.673 15.765 0 8.7 7.024 15.764 15.673 15.764h15.176a15.754 15.754 0 0 0-3.587 10.033c0 8.7 7.023 15.764 15.673 15.764h69.04zm-126.324-8.6c0-5.536-4.385-10.031-9.784-10.031h-49.303c-5.4 0-9.784 4.495-9.784 10.031 0 5.538 4.383 10.033 9.784 10.033h49.303c5.4 0 9.784-4.495 9.784-10.033zm106.177 83.124c0-5.537-4.401-10.032-9.824-10.032h-83.66c-5.42 0-9.823 4.495-9.823 10.032s4.402 10.032 9.823 10.032h83.66c5.423 0 9.824-4.495 9.824-10.032z" fill="#FBD176"/><path d="M242.139 1.94c1.143-2.418 5.708-2.6 10.187-.408 4.481 2.192 7.19 5.936 6.049 8.355-.026.055-16.262-7.89-16.236-7.947zM201.446 28.307c1.142-2.42 5.708-2.603 10.188-.41 4.48 2.192 7.19 5.935 6.047 8.355-.026.053-16.261-7.89-16.235-7.945z" fill="#CCC"/><path d="M286.131 46.53c1.446-3.226 7.23-3.469 12.905-.546 5.675 2.923 9.107 7.915 7.661 11.14-.033.072-20.6-10.519-20.566-10.595z" fill="#999"/><path d="M274.033 1.942c-1.142-2.42-5.707-2.603-10.188-.41-4.48 2.193-7.19 5.935-6.048 8.355.026.054 16.262-7.89 16.236-7.945zM233.34 28.306c-1.143-2.418-5.708-2.603-10.187-.409-4.48 2.193-7.191 5.937-6.05 8.355.027.054 16.263-7.89 16.237-7.946z" fill="#CCC"/><path d="M327.924 46.53c-1.447-3.225-7.23-3.47-12.906-.545-5.675 2.922-9.107 7.914-7.66 11.139.032.072 20.6-10.52 20.566-10.594z" fill="#999"/></g></g></svg>