<?xml version="1.0" encoding="utf-8"?>
<!-- Generator: Adobe Illustrator 26.3.1, SVG Export Plug-In . SVG Version: 6.00 Build 0)  -->
<svg version="1.1" id="圖層_1" xmlns="http://www.w3.org/2000/svg" xmlns:xlink="http://www.w3.org/1999/xlink" x="0px" y="0px"
	 viewBox="0 0 92 92" style="enable-background:new 0 0 92 92;" xml:space="preserve">
<style type="text/css">
	.st0{fill:#1FDE82;}
	.st1{fill:#FFFFFF;}
</style>
<circle class="st0" cx="46" cy="46" r="46"/>
<path class="st1" d="M63.5,29.5c-1-1-3.1-0.4-6.5,1.8c-2.9,1.9-6.4,4.9-9.8,8.3c-5.1,5-8.9,10-10.2,13c-0.2-0.1-0.4-0.1-0.7-0.2
	c-1.3-0.3-2.8,0.1-4,0.9c-1.7,1.2-2.2,2.9-2.2,3.2c-0.4,1.3-1,2.6-2,3.7c-0.3,0.3-0.3,0.9,0.1,1.2c1.2,1.1,2.7,1.6,4.3,1.6
	c1.5,0,3.1-0.5,4.5-1.5c0.7-0.5,1.2-1,1.2-1.1c1.2-1.3,1.7-2.9,1.4-4.4c3-1.1,8.3-5,13.6-10.3c3.4-3.4,6.4-6.8,8.3-9.7
	C64,32.6,64.5,30.5,63.5,29.5z M37.1,59.3c0,0-0.5,0.5-1,0.9c-1.9,1.4-4.3,1.5-6.1,0.5c0.8-1.1,1.4-2.4,1.8-3.6v0c0,0,0,0,0,0
	c0,0,0.3-1.3,1.6-2.2c0.8-0.6,1.8-0.8,2.7-0.6c0.7,0.1,1.3,0.6,1.7,1.2C38.5,56.4,38.2,58.1,37.1,59.3z M39.2,54.4
	c0,0-0.3-0.5-0.7-0.9c0.4-1.1,1.3-2.6,2.5-4.2l2.6,2.6C41.7,53.2,40.2,54.1,39.2,54.4z M45,50.9l-3-3c0.5-0.7,1.1-1.3,1.7-2l3.4,3.3
	C46.3,49.8,45.6,50.4,45,50.9z M60,35.4c-1.9,2.7-4.7,6-7.9,9.1c-1.3,1.3-2.6,2.5-3.9,3.6l-3.5-3.5c1.1-1.3,2.3-2.6,3.6-3.8
	c3.2-3.2,6.4-5.9,9.2-7.8c3.4-2.3,4.5-2.3,4.8-2.3C62.3,30.9,62.3,32.1,60,35.4z"/>
<path class="st1" d="M36.4,57c-0.4-0.2-0.9-0.1-1.1,0.3c0,0,0,0.1-0.1,0.1c-0.1,0.1-0.3,0.3-0.5,0.4c-0.3,0.2-0.7,0.4-1,0.5
	c-0.4,0.1-0.7,0.6-0.6,1c0.1,0.4,0.4,0.6,0.8,0.6c0.1,0,0.1,0,0.2,0c0.6-0.1,1.1-0.4,1.6-0.7c0.3-0.2,0.7-0.6,0.7-0.6
	c0.1-0.1,0.2-0.3,0.3-0.4C36.9,57.8,36.8,57.3,36.4,57z"/>
</svg>
