<?xml version="1.0" encoding="utf-8"?>
<!-- Generator: Adobe Illustrator 26.3.1, SVG Export Plug-In . SVG Version: 6.00 Build 0)  -->
<svg version="1.1" xmlns="http://www.w3.org/2000/svg" xmlns:xlink="http://www.w3.org/1999/xlink" x="0px" y="0px"
	 viewBox="0 0 82 82" style="enable-background:new 0 0 82 82;" xml:space="preserve">
<style type="text/css">
	.st0{fill:#1FDE82;}
	.st1{fill:#FFFFFF;}
</style>
<g id="圖層_1">
	<circle class="st0" cx="41" cy="41" r="41"/>
</g>
<g id="圖層_2">
	<g>
		<g>
			<path class="st1" d="M25.2,40.8c0-8.2,3-12.4,7.6-12.4s7.6,4.2,7.6,12.4c0,8.2-3,12.6-7.6,12.6S25.2,49,25.2,40.8z M35.8,40.8
				c0-6.6-1.3-8.1-3-8.1s-3,1.5-3,8.1c0,6.6,1.3,8.3,3,8.3S35.8,47.4,35.8,40.8z"/>
			<path class="st1" d="M42.5,50.1l2.2-3.5c1.3,1.3,2.8,2.4,4.6,2.4c2.2,0,3.6-1.3,3.6-3.8c0-2.4-1.4-3.7-3.3-3.7
				c-1.2,0-1.9,0.3-3.2,1.2l-2.2-1.6l0.6-12.2h12.1v4.7H49l-0.4,4.5c0.8-0.4,1.5-0.6,2.4-0.6c3.7,0,6.8,2.4,6.8,7.5
				c0,5.4-3.7,8.4-7.8,8.4C46.5,53.5,44.2,52,42.5,50.1z"/>
		</g>
	</g>
</g>
</svg>
