<?xml version="1.0" encoding="utf-8"?>
<!-- Generator: Adobe Illustrator 26.3.1, SVG Export Plug-In . SVG Version: 6.00 Build 0)  -->
<svg version="1.1" id="圖層_1" xmlns="http://www.w3.org/2000/svg" xmlns:xlink="http://www.w3.org/1999/xlink" x="0px" y="0px"
	 viewBox="0 0 200.77 22.42" style="enable-background:new 0 0 200.77 22.42;" xml:space="preserve">
<style type="text/css">
	.st0{fill:#B76D5D;}
</style>
<g>
	<path class="st0" d="M7.66,11.37l6.79-6.94l0.82,0.74l-6.84,7.01l6.94,7.03l-0.86,0.67l-6.84-6.94l-6.86,7.03l-0.77-0.77l6.84-7.03
		L0,5.2l0.67-0.89L7.66,11.37z"/>
	<path class="st0" d="M22.12,5.02c0.12-0.03,1-0.04,2.64-0.01s2.68,0.05,3.15,0.08c0.45,0.03,0.75,0.08,0.88,0.14s0.2,0.18,0.2,0.35
		c0,0.3-0.15,0.55-0.45,0.75c-0.11,0.08-0.23,0.12-0.36,0.14s-0.52,0.03-1.16,0.05c-2.22,0.03-3.77-0.08-4.66-0.33
		c-0.36-0.09-0.56-0.32-0.61-0.68C21.71,5.24,21.84,5.08,22.12,5.02z M24.39,14.98c0.03,0,0.07,0,0.11-0.01s0.07-0.01,0.08-0.01
		h0.05c0.02-0.02,0.33-0.01,0.94,0.02c0.48,0.03,0.86,0.09,1.14,0.16s0.57,0.21,0.9,0.4c0.69,0.44,0.97,0.96,0.84,1.57
		c-0.08,0.44-0.26,1-0.55,1.68s-0.49,1.06-0.6,1.14c-0.08,0.03-0.44,0.07-1.08,0.12c-1.17,0.06-2.01,0.2-2.51,0.42
		c-0.45,0.2-0.74,0.27-0.87,0.21c-0.17-0.09-0.34-0.49-0.52-1.2s-0.3-1.55-0.38-2.53c-0.05-0.5-0.05-0.83-0.02-0.98
		s0.13-0.3,0.3-0.42C22.58,15.29,23.3,15.1,24.39,14.98z M24.58,11.62c0.22-0.03,0.77-0.04,1.64-0.04s1.36,0.03,1.45,0.06
		c0.06,0.02,0.12,0.11,0.16,0.28c0.06,0.22,0.05,0.43-0.04,0.62s-0.22,0.34-0.41,0.43c-0.25,0.11-0.93,0.17-2.05,0.19
		s-1.92-0.02-2.4-0.09c-0.47-0.09-0.76-0.27-0.87-0.54c-0.11-0.22,0.02-0.41,0.4-0.56C22.7,11.85,23.41,11.73,24.58,11.62z
		 M23.29,8.44c0.28-0.03,1.12-0.04,2.51-0.04s2.13,0.04,2.23,0.08c0.11,0.05,0.2,0.15,0.26,0.3c0.08,0.36-0.1,0.63-0.54,0.82
		C27.6,9.67,26.85,9.7,25.49,9.7c-1.08,0-1.8-0.02-2.17-0.06S22.65,9.52,22.4,9.4c-0.41-0.19-0.43-0.41-0.07-0.66
		C22.55,8.6,22.87,8.5,23.29,8.44z M26.73,16.78c-0.03-0.03-0.48-0.06-1.34-0.09s-1.39-0.03-1.59,0c-0.14,0.03-0.3,0.07-0.47,0.12
		l-0.33,0.12l0.05,0.73c0.02,0.48,0.05,0.77,0.12,0.87c0.03,0.06,0.08,0.1,0.14,0.11s0.24,0,0.54-0.01c1.31-0.09,2.23-0.2,2.74-0.33
		l0.21-0.07l0.05-0.45C26.9,17.22,26.86,16.89,26.73,16.78z M24.3,2.23c0.19-0.09,0.58-0.07,1.17,0.07c0.84,0.2,1.3,0.7,1.38,1.48
		c0.03,0.3,0,0.5-0.09,0.61S26.5,4.5,26.27,4.41c-0.12-0.06-0.39-0.25-0.81-0.56s-0.74-0.58-0.97-0.8c-0.16-0.16-0.26-0.27-0.3-0.34
		s-0.06-0.14-0.05-0.22C24.15,2.36,24.2,2.27,24.3,2.23z M35.31,0.3c0.17-0.17,0.34-0.22,0.52-0.14c0.16,0.09,0.28,0.43,0.38,1.01
		c0.05,0.39,0.11,0.6,0.19,0.63c0.09,0.06,0.54,0.12,1.34,0.19c1.31,0.11,2.12,0.21,2.41,0.29s0.45,0.27,0.45,0.55
		c0,0.3-0.13,0.55-0.4,0.77c-0.09,0.06-0.23,0.09-0.41,0.09s-0.59-0.03-1.23-0.09s-1.18-0.09-1.62-0.09
		c-0.27,0.02-0.43,0.03-0.5,0.05s-0.15,0.07-0.25,0.16C36.07,3.85,35.99,4,35.94,4.17c-0.02,0.19,0.06,0.31,0.23,0.36
		s0.7,0.11,1.59,0.18c1.05,0.08,1.71,0.16,1.99,0.23c0.36,0.08,0.6,0.2,0.71,0.35s0.11,0.33-0.04,0.52
		c-0.11,0.14-0.25,0.24-0.42,0.29s-0.5,0.1-0.98,0.13c-0.17,0-0.48,0.02-0.91,0.05s-0.74,0.05-0.91,0.07
		c-0.61,0.03-0.95,0.07-1.03,0.12c-0.14,0.08-0.22,0.28-0.23,0.61c0,0.31,0.08,0.5,0.23,0.56c0.19,0.08,1.08,0.19,2.67,0.33
		c1.41,0.11,2.22,0.22,2.44,0.33c0.27,0.14,0.38,0.33,0.35,0.56s-0.2,0.4-0.52,0.49c-0.22,0.08-1.87,0.09-4.95,0.05
		s-4.83-0.11-5.25-0.19c-0.73-0.12-1.03-0.34-0.89-0.66c0.14-0.27,0.4-0.45,0.79-0.54s1.25-0.18,2.59-0.26l1.29-0.07l-0.05-0.47
		c-0.05-0.56-0.13-0.9-0.26-1.01c-0.05-0.05-0.56-0.08-1.55-0.09l-1.43-0.05l-0.19-0.26c-0.14-0.19-0.22-0.3-0.23-0.35
		c0-0.08,0.09-0.2,0.28-0.35s0.37-0.27,0.54-0.33c0.23-0.09,0.78-0.15,1.64-0.16l1.29-0.05V4.03c0-0.38-0.02-0.56-0.07-0.56
		c-0.11,0-0.54-0.05-1.29-0.14s-1.23-0.16-1.43-0.19C31.38,3.02,31,2.84,30.81,2.6c-0.05-0.05-0.07-0.08-0.07-0.11
		s0.05-0.07,0.14-0.15c0.11-0.11,0.34-0.25,0.68-0.42l0.47-0.28h0.68c0.8,0.02,1.48,0.07,2.04,0.16l0.23,0.02V1.55
		c0-0.17,0.02-0.4,0.05-0.68C35.09,0.62,35.19,0.43,35.31,0.3z M34.66,10.48c0.8-0.06,1.74-0.04,2.84,0.07
		c0.69,0.06,1.18,0.2,1.49,0.4s0.58,0.58,0.83,1.12c0.19,0.41,0.3,0.78,0.35,1.12s0.05,1.16,0.02,2.44
		c-0.05,3.58-0.24,5.7-0.59,6.38c-0.11,0.22-0.26,0.35-0.45,0.4s-0.36,0-0.52-0.15s-0.24-0.32-0.25-0.5s0.04-0.54,0.13-1.05
		l0.19-0.89l-0.02-3c-0.02-1.61-0.04-2.63-0.08-3.07s-0.13-0.77-0.27-1.01c-0.08-0.14-0.2-0.26-0.38-0.35
		c-0.12-0.06-0.3-0.1-0.54-0.11s-0.94-0.01-2.11-0.01c-1.61,0-2.45,0.03-2.53,0.09c-0.05,0.05-0.09,0.19-0.14,0.42
		s-0.05,0.41-0.02,0.54l0.02,0.16h1.38c1.77,0,2.87,0.05,3.3,0.16c0.12,0.05,0.25,0.14,0.39,0.28s0.2,0.25,0.2,0.34
		s-0.05,0.2-0.16,0.33s-0.24,0.25-0.4,0.36l-0.3,0.19l-2.25,0.02c-0.16,0-0.32,0-0.5,0.01s-0.34,0.01-0.48,0.01s-0.28,0-0.41,0
		s-0.25,0-0.36,0.01s-0.2,0.01-0.27,0.01s-0.11,0-0.13,0h-0.09c-0.02,0-0.02,0.22-0.02,0.66v0.66h0.16c0.08,0,0.75-0.02,2.02-0.07
		c1.28-0.06,2.16-0.09,2.62-0.09h0.75l0.09,0.16c0.14,0.34,0.16,0.65,0.05,0.91c-0.08,0.17-0.24,0.28-0.49,0.33s-0.98,0.11-2.2,0.19
		c-1.91,0.11-2.88,0.19-2.93,0.23c0,0.02-0.02,0.42-0.07,1.22c-0.03,0.64-0.06,1.05-0.09,1.24s-0.08,0.3-0.14,0.35
		c-0.08,0.05-0.17,0.05-0.28,0.01s-0.19-0.11-0.23-0.22c-0.25-0.5-0.34-2.49-0.28-5.98c0.02-1.62-0.01-2.55-0.07-2.77
		c-0.05-0.19-0.06-0.33-0.04-0.43s0.11-0.22,0.25-0.36C32.01,10.88,33.02,10.62,34.66,10.48z"/>
	<path class="st0" d="M48.62,0.73c0.06-0.09,0.11-0.15,0.14-0.16s0.09-0.02,0.19,0c0.2,0.02,0.35,0.1,0.45,0.26s0.16,0.45,0.21,0.89
		c0.05,0.34,0.1,0.56,0.16,0.64S50,2.49,50.27,2.51c0.88,0.08,1.48,0.15,1.8,0.21s0.57,0.16,0.73,0.3c0.25,0.22,0.28,0.47,0.09,0.75
		l-0.14,0.23l-1.71,0.05L49.33,4.1l0.02,0.59c0,0.44,0.02,0.69,0.07,0.75s0.14,0.12,0.29,0.18s0.51,0.14,1.09,0.27
		c0.66,0.14,1.08,0.24,1.27,0.3c0.28,0.09,0.51,0.22,0.69,0.39s0.35,0.42,0.5,0.76c0.12,0.3,0.2,0.55,0.21,0.76
		s-0.01,0.53-0.07,0.95c-0.08,0.64-0.09,0.97-0.05,0.98c0.05,0,0.19-0.16,0.42-0.49l0.35-0.45l0.56-0.02c0.39,0,0.82,0.02,1.29,0.05
		c0.38,0.02,0.68,0.04,0.9,0.07s0.44,0.08,0.64,0.14s0.36,0.14,0.48,0.22s0.23,0.21,0.34,0.38s0.18,0.34,0.22,0.52
		s0.08,0.43,0.12,0.75s0.06,0.65,0.06,0.98s0,0.76,0,1.28c-0.06,4.19-0.14,6.55-0.23,7.1c-0.05,0.31-0.2,0.55-0.47,0.73
		c-0.3,0.2-0.57,0.16-0.82-0.12c-0.12-0.12-0.19-0.25-0.2-0.38s0.05-0.3,0.18-0.54l0.16-0.4v-1.43v-1.43l-1.1,0.07
		c-0.78,0.05-1.3,0.09-1.57,0.14l-0.45,0.02l-0.02,0.56c0,0.17-0.03,0.63-0.09,1.38c0,0.53-0.05,0.84-0.14,0.91
		c-0.06,0.09-0.15,0.12-0.26,0.09c-0.16-0.06-0.27-0.25-0.34-0.56s-0.14-0.87-0.2-1.66c-0.05-0.48-0.09-0.73-0.12-0.75
		c-0.02-0.02-0.13,0.01-0.35,0.07s-0.84,0.12-1.85,0.19l-1.52,0.05l-0.02,1.36c0,1.38-0.06,2.11-0.19,2.2
		c-0.06,0.03-0.16,0.05-0.29,0.05s-0.23-0.02-0.29-0.05c-0.11-0.06-0.18-0.84-0.21-2.32l-0.02-0.96l-0.91-0.05
		c-1.34-0.06-2.09-0.22-2.23-0.47c-0.12-0.22-0.1-0.43,0.07-0.63c0.12-0.16,0.63-0.29,1.52-0.4c0.77-0.06,1.21-0.14,1.35-0.23
		s0.19-0.34,0.18-0.75v-0.45l-0.84-0.16c-1.02-0.16-1.62-0.32-1.8-0.49l-0.16-0.12l0.16-0.42l0.19-0.38l-0.12-0.89
		c-0.23-1.62-0.23-3.56,0-5.81c0-0.2,0.04-0.33,0.12-0.38c0.09-0.05,0.47-0.12,1.12-0.21c0.55-0.08,0.89-0.14,1.02-0.18
		s0.21-0.11,0.22-0.2c0-0.05,0.02-0.26,0.05-0.64s0.05-0.64,0.05-0.79V3.96l-0.54,0.02c-0.97,0.03-1.61-0.04-1.92-0.21
		c-0.17-0.06-0.27-0.17-0.3-0.33c-0.09-0.23-0.01-0.41,0.26-0.54s0.85-0.25,1.76-0.38l0.82-0.09l0.02-0.45
		C48.44,1.37,48.52,0.95,48.62,0.73z M48.39,7.95V7.27l-0.33,0.02c-0.44,0.02-0.75,0.1-0.95,0.26s-0.32,0.43-0.39,0.82
		c-0.12,0.5-0.15,0.79-0.08,0.88s0.33,0.11,0.79,0.06c0.38,0,0.61-0.03,0.69-0.08s0.15-0.18,0.2-0.39
		C48.35,8.71,48.37,8.41,48.39,7.95z M48.11,10.85c-0.11-0.05-0.34-0.05-0.7,0s-0.57,0.1-0.63,0.16c-0.03,0.06-0.06,0.2-0.08,0.42
		s-0.01,0.43,0.04,0.63c0.05,0.41,0.14,0.68,0.28,0.81s0.38,0.21,0.7,0.22c0.22,0.02,0.34-0.02,0.38-0.09
		c0.11-0.23,0.16-0.77,0.16-1.59C48.22,11.07,48.17,10.88,48.11,10.85z M53.45,10.92c-0.09-0.3-0.16-0.47-0.19-0.52l-0.05,0.07
		c-0.02,0.06-0.04,0.14-0.08,0.25s-0.07,0.21-0.11,0.34c-0.2,0.81-0.37,1.36-0.49,1.65s-0.34,0.58-0.66,0.88
		c-0.55,0.56-1.04,0.85-1.48,0.87c-0.14,0-0.32,0.04-0.53,0.12s-0.36,0.16-0.43,0.23c-0.09,0.08-0.12,0.24-0.09,0.49
		c0.05,0.3,0.07,0.48,0.07,0.54l0.05,0.21h1.34c0.89,0,1.48,0.02,1.78,0.05c0.27,0.02,0.43,0.02,0.49,0.02
		c0.05-0.03,0.09-0.13,0.12-0.3s0.07-0.66,0.12-1.45c0.06-0.8,0.12-1.49,0.19-2.09l0.09-0.89L53.45,10.92z M50.57,7.45
		c-0.48-0.06-0.79-0.09-0.93-0.09s-0.2,0.03-0.2,0.09c-0.03,0.06-0.03,0.3,0,0.7c0.03,0.38,0.08,0.61,0.14,0.69s0.26,0.15,0.59,0.2
		c0.42,0.09,0.72,0.21,0.89,0.36s0.27,0.39,0.28,0.71v0.28l-0.3,0.09c-0.23,0.05-0.57,0.09-1.01,0.14l-0.66,0.02v0.77
		c-0.03,0.91,0.09,1.43,0.35,1.57c0.08,0.05,0.27,0.04,0.59-0.02c0.42-0.05,0.73-0.16,0.91-0.35s0.34-0.48,0.47-0.89
		c0.2-0.69,0.32-1.41,0.35-2.18s-0.04-1.3-0.21-1.62c-0.06-0.12-0.18-0.23-0.34-0.3S51.02,7.5,50.57,7.45z M58.63,0.87
		c0.28-0.11,0.57-0.14,0.88-0.08S60.22,1,60.72,1.27c0.36,0.17,1.37,0.78,3.02,1.82s2.53,1.61,2.62,1.7
		c0.06,0.08,0.09,0.29,0.09,0.63s-0.05,0.56-0.14,0.66s-0.18,0.14-0.26,0.14c-0.14,0-0.76-0.34-1.85-1.03
		c-1.8-1.14-2.98-1.88-3.54-2.2s-1.02-0.56-1.38-0.7l-0.47-0.19l-0.28,0.14c-0.89,0.47-1.99,1.33-3.3,2.58l-0.82,0.82l-0.28-0.05
		c-0.31-0.05-0.47-0.13-0.47-0.26c0-0.19,0.47-0.75,1.41-1.69C56.73,2.02,57.91,1.1,58.63,0.87z M57.27,14.84
		c-0.02-0.41-0.05-0.65-0.11-0.74s-0.15-0.11-0.29-0.08c-0.12,0.03-0.48,0.08-1.08,0.14s-0.98,0.13-1.15,0.21s-0.27,0.23-0.28,0.47
		c-0.05,0.36,0.07,0.59,0.35,0.68c0.16,0.06,0.45,0.1,0.87,0.12s0.8,0,1.15-0.05l0.61-0.05L57.27,14.84z M56.45,10.69
		c-0.64-0.09-1.1-0.09-1.38,0.02c-0.11,0.05-0.18,0.12-0.22,0.23s-0.1,0.37-0.18,0.77c-0.06,0.41-0.1,0.66-0.12,0.77l-0.05,0.14
		l1.38-0.05l1.41-0.02l-0.05-0.19c0-0.03-0.05-0.29-0.16-0.77c-0.06-0.42-0.12-0.68-0.19-0.76S56.69,10.7,56.45,10.69z M56.5,5.86
		c0.73-0.06,1.82-0.06,3.26,0s2.3,0.15,2.6,0.26c0.17,0.06,0.27,0.21,0.29,0.45s-0.04,0.46-0.18,0.68l-0.14,0.23h-0.87
		c-2.09,0-3.94-0.05-5.53-0.16c-0.44-0.05-0.72-0.1-0.84-0.15s-0.23-0.18-0.3-0.39c-0.11-0.25-0.03-0.45,0.23-0.6
		S55.78,5.92,56.5,5.86z M60.86,10.92c0.12-0.08,0.3-0.06,0.54,0.05c0.16,0.08,0.27,0.19,0.35,0.33c0.05,0.09,0.07,0.23,0.07,0.4
		s-0.02,0.65-0.07,1.43c-0.06,1.2-0.11,2.26-0.14,3.16c-0.05,0.84-0.09,1.35-0.13,1.52s-0.15,0.29-0.34,0.35
		c-0.14,0.05-0.29,0.02-0.45-0.09l-0.26-0.14l0.05-2.51c0.03-1.72,0.07-2.88,0.12-3.49S60.73,10.98,60.86,10.92z M64.05,8.84
		c0.06-0.11,0.2-0.14,0.42-0.09s0.36,0.15,0.42,0.3c0.06,0.09,0.1,1.2,0.11,3.3s0,4.22-0.04,6.33c-0.03,1.34-0.05,2.16-0.06,2.45
		s-0.04,0.48-0.11,0.57c-0.09,0.16-0.23,0.25-0.42,0.28s-0.3-0.03-0.35-0.19c-0.09-0.27-0.14-2.6-0.14-7.01
		C63.87,11.05,63.92,9.07,64.05,8.84z"/>
	<path class="st0" d="M70.98,2.23c0.28-0.08,0.62-0.08,1.03,0c0.52,0.11,1.03,0.31,1.55,0.61c0.7,0.42,1.67,1.29,2.89,2.61
		s2.15,2.5,2.78,3.53c1.03,1.69,1.94,3,2.72,3.94c0.98,1.17,1.92,2.12,2.81,2.85s2.02,1.49,3.38,2.29c0.89,0.52,1.41,0.86,1.56,1.03
		s0.14,0.44-0.04,0.8l-0.16,0.4l-0.49-0.02c-0.31-0.03-0.67-0.14-1.07-0.34s-0.99-0.55-1.77-1.07c-1.42-0.94-2.62-1.88-3.59-2.81
		s-2.23-2.4-3.77-4.38c-0.66-0.81-1.01-1.22-1.05-1.22c-0.16,0-1.41,1.52-3.77,4.57c-1.22,1.58-2.17,2.75-2.86,3.52l-0.45,0.52
		l-0.3-0.05c-0.38-0.03-0.61-0.13-0.7-0.3c-0.05-0.06,0-0.19,0.13-0.38s0.5-0.62,1.09-1.29c0.64-0.72,1.02-1.17,1.15-1.36
		c0.3-0.38,0.94-1.27,1.92-2.67c0.59-0.84,1.34-1.82,2.23-2.93c0.48-0.61,0.73-0.95,0.73-1.03c0.03-0.14-0.11-0.46-0.42-0.96
		c-0.59-0.92-1.52-1.91-2.77-2.98c-0.52-0.45-0.88-0.75-1.1-0.88s-0.64-0.35-1.27-0.64c-0.7-0.3-1.05-0.54-1.05-0.73
		c0-0.08,0.08-0.19,0.23-0.33S70.84,2.27,70.98,2.23z"/>
	<path class="st0" d="M103.02,2.39c0.44,0,1.23,0,2.37,0c0.84,0.02,2.25,0.02,4.22,0.02l2.13,0.05l0.3,0.19
		c0.08,0.36,0.07,0.66-0.02,0.9s-0.33,0.37-0.7,0.39c-0.38,0.05-1.29,0.06-2.74,0.05c-2.78-0.03-4.22,0-4.31,0.09
		c-0.19,0.2-0.31,1.71-0.38,4.52l-0.02,1.64l1.92-0.07c2.95-0.05,4.59,0,4.92,0.14c0.12,0.06,0.22,0.16,0.29,0.28
		s0.09,0.25,0.06,0.38c-0.06,0.28-0.24,0.46-0.54,0.54c-0.39,0.09-1.73,0.17-4.01,0.23c-1.05,0.03-1.73,0.05-2.04,0.07l-0.52,0.05
		l-0.07,0.45c-0.02,0.3-0.02,1.35,0,3.16c0,0.14-0.01,0.34-0.02,0.61c0,1.16,0.02,1.83,0.07,2.02s0.19,0.3,0.42,0.33
		c0.03,0,0.06,0,0.09,0c0.52,0.05,2.37,0.08,5.55,0.09c1.3-0.03,2.11,0,2.43,0.08s0.54,0.19,0.64,0.32
		c0.17,0.16,0.26,0.34,0.27,0.54s-0.07,0.37-0.25,0.49c-0.11,0.06-1.02,0.12-2.74,0.16c-1.33,0.03-4.07,0.06-8.24,0.08
		s-6.56,0.02-7.18-0.01l-0.54-0.02l-0.14-0.42c0-0.22,0.02-0.37,0.06-0.46s0.12-0.16,0.25-0.22c0.11-0.06,0.38-0.14,0.81-0.25
		s0.72-0.15,0.88-0.15h0.21l-0.02-3.47c0.03-3.09,0.1-4.73,0.21-4.92c0.03-0.06,0.11-0.12,0.25-0.18s0.28-0.08,0.43-0.08
		c0.11,0,0.23,0.09,0.35,0.26c0.11,0.17,0.16,2.11,0.16,5.81c0.03,1.08,0.06,1.72,0.08,1.92s0.07,0.38,0.15,0.52
		c0.16,0.02,0.63,0.02,1.42,0.02s1.54,0,2.26,0l0.75-0.02l0.02-3.98c0.05-3.08,0.09-5.52,0.12-7.31c0.03-2.09,0.03-3.16,0-3.21
		s-0.27-0.05-0.7,0c-0.64-0.02-1.63-0.01-2.98,0.02s-2.09,0.02-2.23-0.05c-0.72-0.38-1-0.71-0.84-1.01
		c0.06-0.16,0.32-0.27,0.76-0.34s1.51-0.14,3.2-0.2C101.39,2.39,102.44,2.38,103.02,2.39z"/>
	<path class="st0" d="M130.49,0.09c0.14-0.09,0.33-0.12,0.56-0.07c0.16,0.05,0.27,0.13,0.33,0.26c0.05,0.16,0.08,0.32,0.09,0.49
		c0.02,0.22,0.07,0.36,0.18,0.41s0.43,0.09,0.97,0.11c1.34,0.02,2.31,0.08,2.89,0.2s1.03,0.33,1.32,0.64
		c0.19,0.19,0.31,0.38,0.36,0.57s0.05,0.45-0.01,0.76c-0.06,0.39-0.29,0.86-0.69,1.42s-0.7,0.84-0.9,0.86
		c-0.08,0-0.19-0.06-0.34-0.19s-0.23-0.23-0.25-0.33c0-0.11,0.06-0.31,0.19-0.61c0.09-0.27,0.16-0.52,0.19-0.77s0.02-0.42-0.02-0.52
		c-0.09-0.14-0.29-0.22-0.59-0.25s-1,0-2.11,0.06c-0.94,0.06-1.51,0.11-1.72,0.13s-0.36,0.07-0.46,0.13
		c-0.12,0.08-0.35,0.49-0.68,1.24c-0.59,1.36-0.96,2.4-1.1,3.12c-0.19,0.98-0.3,3.16-0.35,6.54c-0.05,3.66-0.08,5.86-0.09,6.62
		s-0.06,1.18-0.14,1.25c-0.08,0.11-0.23,0.11-0.47,0c-0.28-0.11-0.43-0.35-0.45-0.73c0-0.14,0.02-0.67,0.05-1.59
		c0.06-1.53,0.11-3.41,0.14-5.65c0-0.86,0-1.5,0-1.93s0-0.78,0-1.04s0-0.42,0-0.47s-0.01-0.07-0.02-0.07
		c-0.02,0.02-0.2,0.35-0.56,1.01c-0.5,0.95-0.84,1.45-1.01,1.48c-0.09,0-0.17,0.06-0.22,0.19s-0.12,0.41-0.2,0.84
		c-0.12,0.72-0.34,1.56-0.66,2.53c-0.16,0.47-0.29,0.81-0.39,1.02s-0.22,0.38-0.36,0.5l-0.26,0.16l-1.2,0.07
		c-1.88,0.12-2.93,0.12-3.16,0c-0.11-0.03-0.2-0.12-0.28-0.27s-0.22-0.51-0.42-1.09c-0.25-0.73-0.42-1.1-0.52-1.1
		c-0.06,0.02-0.2,0.43-0.41,1.23s-0.43,1.32-0.64,1.56c-0.55,0.27-0.71,0.02-0.49-0.73l0.26-0.77l0.59-2.06
		c0.38-1.41,0.68-2.52,0.91-3.33c0.22-0.69,0.47-1.62,0.75-2.79c0.25-0.97,0.39-1.66,0.42-2.06l-0.02-0.63l-0.3-0.02
		c-0.78-0.05-1.28-0.16-1.5-0.35c-0.16-0.17-0.19-0.37-0.09-0.59c0.06-0.16,0.21-0.25,0.46-0.29s0.96-0.09,2.17-0.15
		c2.44-0.11,3.88-0.1,4.31,0.02c0.25,0.06,0.36,0.27,0.33,0.62s-0.17,0.6-0.42,0.74c-0.14,0.06-0.77,0.11-1.9,0.14
		s-1.7,0.05-1.71,0.07c-0.03,0.05-0.25,0.77-0.66,2.18c-0.45,1.5-0.71,2.34-0.77,2.53l-0.12,0.33l2.32-0.14
		c0.08,0.02,0.2,0.02,0.35,0c1.11-0.06,1.78-0.08,2.02-0.06s0.48,0.14,0.75,0.36c0.06,0.05,0.1,0.09,0.12,0.12
		c0.3,0.22,0.46,0.33,0.49,0.33c0.06,0,0.27-0.32,0.61-0.95s0.68-1.32,1.01-2.07c0.55-1.2,1.03-2.51,1.45-3.91l0.47-1.57
		c0.03-0.09,0.04-0.2,0.02-0.3V3.33l-0.52,0.05c-0.77,0.11-1.23,0.26-1.38,0.45c-0.05,0.08-0.09,0.27-0.14,0.59
		c-0.03,0.88-0.21,1.42-0.54,1.64c-0.44-0.09-0.66-0.67-0.68-1.73l0.12-1.36l0.14-0.33c0.11-0.23,0.22-0.38,0.33-0.45
		c0.14-0.12,0.76-0.27,1.85-0.42c0.61-0.08,1-0.14,1.17-0.19c0.19-0.06,0.36-0.16,0.5-0.28s0.23-0.25,0.25-0.38s0.08-0.28,0.19-0.47
		S130.4,0.14,130.49,0.09z M122.83,13.15c-0.38,0-0.93,0.02-1.68,0.06s-1.27,0.08-1.58,0.13l-0.33,0.02l0.14,1.73
		c0.09,1.14,0.16,1.77,0.19,1.88l0.05,0.14l1.59-0.14c0.88-0.08,1.46-0.15,1.75-0.21s0.46-0.14,0.53-0.23s0.14-0.29,0.22-0.59
		s0.14-0.55,0.15-0.77c0.03-0.27,0.05-0.63,0.05-1.1c-0.02-0.48-0.06-0.76-0.13-0.82S123.39,13.15,122.83,13.15z M131.34,6.23
		c0.12-0.09,0.26-0.14,0.41-0.14s0.39,0.05,0.74,0.16s0.63,0.22,0.87,0.33c0.2,0.14,0.35,0.27,0.43,0.4s0.13,0.3,0.13,0.52
		s0.02,0.34,0.05,0.38c0.08,0.03,0.7,0.1,1.88,0.21c0.56,0.03,0.91,0.09,1.03,0.16c0.22,0.08,0.36,0.24,0.41,0.48s0,0.45-0.18,0.62
		c-0.16,0.22-0.77,0.35-1.85,0.4l-1.01,0.07l-0.12,0.26c-0.06,0.14-0.12,0.34-0.16,0.61c-0.03,0.25-0.01,0.42,0.07,0.52
		c0.06,0.08,0.15,0.12,0.27,0.14s0.39,0.04,0.83,0.07c0.45,0.06,0.75,0.12,0.89,0.16c0.42,0.17,0.55,0.6,0.38,1.29l-0.12,0.38
		l-0.35,0.02c-0.22,0-0.6-0.02-1.15-0.05c-0.53-0.02-0.8-0.02-0.82-0.01s-0.04,0.21-0.07,0.62s-0.02,0.69,0.02,0.84
		c0.05,0.14,0.12,0.23,0.21,0.26s0.41,0.08,0.94,0.14c0.44,0.03,0.75,0.08,0.95,0.14s0.34,0.16,0.43,0.3
		c0.14,0.23,0.12,0.48-0.07,0.73c-0.11,0.12-0.23,0.21-0.35,0.26s-0.38,0.09-0.77,0.14c-0.2,0.05-0.54,0.11-1.01,0.19
		c-0.14,0.02-0.23,0.06-0.26,0.13s-0.07,0.3-0.12,0.69c-0.06,0.81-0.03,1.27,0.09,1.36c0.09,0.08,0.98,0.16,2.65,0.23
		c0.78,0.05,1.2,0.07,1.24,0.07l0.35,0.02l0.02,0.49c0,0.31-0.05,0.54-0.16,0.68c-0.11,0.12-0.23,0.21-0.35,0.26
		c-0.16,0.05-1.3,0.1-3.45,0.15s-3.38,0.07-3.7,0.06c-0.56-0.06-0.93-0.19-1.1-0.38c-0.14-0.17-0.12-0.38,0.05-0.61
		c0.11-0.19,0.69-0.37,1.73-0.54c0.58-0.09,0.96-0.16,1.15-0.21c0.16-0.06,0.25-0.18,0.29-0.35s0.05-0.55,0.04-1.12l-0.02-0.94
		l-1.36,0.02l-1.38,0.02l-0.21-0.26c-0.14-0.14-0.21-0.28-0.21-0.42c0.05-0.31,0.2-0.53,0.45-0.66c0.12-0.06,0.58-0.15,1.36-0.26
		c0.78-0.14,1.2-0.23,1.24-0.26c0.05-0.05,0.08-0.32,0.11-0.81s0.01-0.78-0.04-0.86c-0.03-0.05-0.45-0.08-1.27-0.09
		c-0.66-0.02-1.08-0.05-1.27-0.09s-0.34-0.16-0.45-0.33c-0.08-0.09-0.1-0.21-0.07-0.35c0.06-0.14,0.23-0.25,0.5-0.34
		s0.96-0.25,2.07-0.5c0.19-0.05,0.29-0.1,0.3-0.16c0.03-0.09,0.06-0.39,0.09-0.9s0.03-0.77,0-0.79c-0.05-0.03-0.55-0.05-1.5-0.07
		c-0.92-0.03-1.45-0.05-1.57-0.07c-0.19-0.08-0.27-0.23-0.23-0.45s0.17-0.4,0.42-0.54c0.16-0.08,0.59-0.2,1.29-0.35
		c0.97-0.23,1.46-0.41,1.48-0.54c0.02-0.08-0.13-0.18-0.45-0.3c-0.25-0.12-0.48-0.27-0.7-0.45c-0.14-0.14-0.22-0.23-0.25-0.28
		s-0.02-0.12,0.01-0.21C131.12,6.43,131.21,6.33,131.34,6.23z"/>
	<path class="st0" d="M146.94,5.95c0.19-0.2,0.32-0.31,0.4-0.32s0.21,0.04,0.4,0.15c0.28,0.2,0.52,0.34,0.7,0.41s0.56,0.14,1.12,0.2
		c0.98,0.11,1.51,0.23,1.57,0.35c0.05,0.08,0.07,0.23,0.07,0.45s-0.03,0.36-0.09,0.42c-0.08,0.12-0.78,0.2-2.11,0.23h-0.91v0.49
		c0,0.31,0.04,0.55,0.12,0.7c0.05,0.09,0.1,0.16,0.15,0.19s0.17,0.08,0.34,0.14c0.25,0.06,0.41,0.09,0.49,0.09
		c0.09,0,0.31,0.06,0.64,0.18s0.55,0.21,0.64,0.29c0.42,0.27,0.72,1.03,0.89,2.3c0.06,0.53,0.07,0.95,0.01,1.27
		s-0.23,0.84-0.53,1.57l-0.35,0.84l-0.75,0.07c-0.97,0.06-1.55,0.18-1.73,0.35c-0.09,0.09-0.17,0.23-0.22,0.41s-0.07,0.31-0.05,0.39
		s0.11,0.14,0.26,0.18s0.44,0.07,0.88,0.11c1.17,0.06,1.84,0.1,2,0.12s0.28,0.05,0.34,0.12c0.06,0.08,0.11,0.21,0.14,0.4
		s0.03,0.34,0,0.45c-0.03,0.14-0.14,0.23-0.34,0.27s-0.72,0.07-1.58,0.11c-1.09,0.03-1.64,0.06-1.64,0.09
		c0,0.06-0.04,0.47-0.12,1.23s-0.12,1.2-0.14,1.32c-0.05,0.31-0.16,0.54-0.35,0.68c-0.2,0.12-0.39,0.11-0.56-0.05
		c-0.17-0.17-0.18-0.7-0.02-1.59c0.09-0.48,0.15-0.84,0.16-1.08l0.05-0.33l-1.36-0.02c-1.03-0.02-1.71-0.05-2.04-0.11
		s-0.55-0.19-0.66-0.41c-0.06-0.14-0.06-0.27,0-0.38c0.12-0.19,0.34-0.32,0.64-0.4s1-0.14,2.1-0.19l1.45-0.05l-0.02-0.73v-0.7
		l-0.28,0.05c-0.28,0.05-0.7,0.07-1.27,0.06s-0.95-0.04-1.17-0.08l-0.45-0.12l-0.02-2.62c-0.03-1.62-0.02-2.66,0.02-3.09
		s0.18-0.71,0.4-0.82s0.83-0.2,1.83-0.28c0.53-0.03,0.81-0.07,0.84-0.12c0.03-0.03,0.05-0.26,0.05-0.68V7.83l-0.82,0.02
		c-1.36,0.02-2.15-0.1-2.37-0.35c-0.14-0.17-0.11-0.36,0.09-0.56c0.14-0.12,0.34-0.22,0.6-0.28s0.83-0.16,1.72-0.28l0.52-0.09
		L146.94,5.95z M146.52,0.61c0.2-0.14,0.77-0.17,1.71-0.09c1.34,0.11,2.26,0.41,2.74,0.91c0.27,0.25,0.29,0.5,0.07,0.75
		c-0.19,0.17-0.36,0.25-0.53,0.25s-0.49-0.11-0.97-0.29l-0.77-0.3h-1.01c-0.67,0-1.01,0.02-1.01,0.05c0,0.08,0.55,0.48,1.64,1.22
		c0.55,0.38,0.88,0.61,1.01,0.7l0.21,0.19l-0.12,0.16c-0.09,0.16-0.24,0.3-0.45,0.42c-0.08,0.06-0.2,0.07-0.38,0.02
		c-0.45-0.12-1.22-0.52-2.3-1.17l-0.7-0.38l-0.26,0.3c-0.48,0.53-0.8,0.82-0.96,0.87c-0.08,0.02-0.16,0-0.26-0.05
		s-0.16-0.11-0.19-0.19c-0.06-0.14,0-0.39,0.2-0.76s0.46-0.76,0.81-1.18C145.63,1.32,146.13,0.84,146.52,0.61z M146.83,10.76
		c-0.09-0.03-0.36-0.04-0.81-0.02s-0.77,0.04-0.97,0.07s-0.35,0.09-0.43,0.19s-0.11,0.21-0.08,0.35c0.05,0.22,0.16,0.39,0.35,0.52
		c0.11,0.05,0.36,0.11,0.74,0.18s0.74,0.1,1.07,0.08h0.52l-0.09-0.49C147.06,11.08,146.97,10.79,146.83,10.76z M145.7,13.57
		c0.5,0.05,0.55,0.07,0.16,0.07l-1.22-0.07l0.05,0.47c0.03,0.42,0.14,0.66,0.33,0.7c0.27,0.12,0.8,0.19,1.59,0.19h0.4l0.05-0.52
		c0.05-0.3,0.06-0.49,0.04-0.57s-0.09-0.15-0.2-0.19S146.39,13.59,145.7,13.57z M150.18,13.27c-0.06-0.08-0.13-0.11-0.2-0.11
		s-0.18,0.07-0.34,0.2c-0.17,0.09-0.31,0.16-0.41,0.19s-0.3,0.05-0.6,0.07l-0.68,0.02l0.02,0.38c0.03,0.25,0.09,0.42,0.19,0.52
		s0.23,0.14,0.4,0.14c0.52-0.03,0.93-0.21,1.24-0.54c0.14-0.14,0.25-0.3,0.33-0.48S150.23,13.34,150.18,13.27z M149.55,11.25
		c-0.06-0.06-0.32-0.1-0.77-0.12l-0.68-0.02v0.35c0,0.23,0.04,0.4,0.13,0.49s0.26,0.18,0.53,0.26c0.28,0.06,0.53,0.13,0.75,0.21
		c0.12,0.03,0.21,0.05,0.27,0.07s0.1,0.02,0.14,0.02s0.05-0.02,0.05-0.05s-0.01-0.08-0.01-0.14c-0.03-0.17-0.1-0.39-0.2-0.64
		S149.58,11.28,149.55,11.25z M154.42,0.26c0.2-0.09,0.88-0.08,2.02,0.05c0.86,0.11,1.57,0.26,2.13,0.45
		c0.55,0.17,0.84,0.38,0.89,0.61c0.05,0.2,0.02,0.41-0.07,0.61s-0.21,0.3-0.35,0.3c-0.09,0-0.49-0.1-1.2-0.3
		c-0.48-0.14-0.82-0.23-1.01-0.27s-0.51-0.07-0.96-0.08c-0.64-0.03-0.96-0.02-0.96,0.02c0,0.14,0.59,0.48,1.78,1.01
		c0.84,0.38,1.38,0.66,1.59,0.87c0.38,0.41,0.35,0.64-0.07,0.7c-0.2,0.05-0.5,0.02-0.89-0.07c-0.81-0.19-1.73-0.48-2.74-0.89
		l-0.8-0.3l-0.12,0.35c-0.16,0.52-0.35,0.8-0.59,0.84c-0.09,0.03-0.2,0.01-0.33-0.07s-0.2-0.17-0.23-0.28
		c-0.11-0.3,0.09-0.92,0.6-1.88S154.06,0.41,154.42,0.26z M154.14,6.52c0.3-0.05,0.95-0.04,1.96,0.01s1.77,0.12,2.29,0.2
		c0.38,0.06,0.62,0.13,0.75,0.21c0.28,0.14,0.56,0.57,0.83,1.29s0.36,1.28,0.27,1.69c-0.03,0.16-0.21,0.56-0.53,1.22
		s-0.64,1.25-0.95,1.78c-0.69,1.23-1.09,1.95-1.22,2.13s-0.29,0.3-0.49,0.33c-0.12,0.02-0.24-0.05-0.35-0.19
		c-0.25-0.3-0.33-0.54-0.23-0.73c0.05-0.09,0.2-0.29,0.47-0.59c0.44-0.48,0.92-1.4,1.45-2.74c0.22-0.55,0.35-0.93,0.39-1.14
		s0.03-0.43-0.04-0.64c-0.08-0.3-0.2-0.57-0.36-0.83s-0.32-0.43-0.46-0.5c-0.16-0.08-0.64-0.16-1.45-0.26s-1.36-0.12-1.64-0.07
		l-0.23,0.02l-0.19,0.61c-0.12,0.41-0.21,0.88-0.25,1.41s-0.07,1.68-0.11,3.45c-0.03,3.25,0.04,5.17,0.21,5.77
		c0.08,0.36,0.3,0.69,0.68,0.98c0.19,0.14,0.38,0.23,0.57,0.28s0.5,0.07,0.93,0.07c0.34,0.02,0.57,0.01,0.67-0.01
		s0.25-0.08,0.46-0.18c0.44-0.2,1.14-0.75,2.11-1.64c0.94-0.86,1.48-1.29,1.64-1.29c0.06,0,0.16,0.07,0.3,0.2s0.23,0.25,0.26,0.34
		c0.03,0.17-0.03,0.37-0.18,0.59s-0.47,0.56-0.97,1.03c-1.05,0.94-1.84,1.55-2.37,1.85c-0.73,0.39-1.49,0.54-2.26,0.46
		s-1.44-0.39-2-0.9c-0.2-0.2-0.41-0.46-0.63-0.76s-0.35-0.54-0.4-0.69c-0.06-0.2-0.11-0.95-0.14-2.25s-0.04-2.59-0.02-3.89
		c0.06-3.45,0.23-5.5,0.49-6.14C153.48,6.72,153.73,6.56,154.14,6.52z"/>
	<path class="st0" d="M167.92,2.7c0.08-0.09,0.13-0.14,0.16-0.14s0.12,0.12,0.27,0.38s0.23,0.42,0.25,0.52
		c0.03,0.11,0,0.45-0.09,1.01c-0.55,3.7-0.82,7.88-0.82,12.54v2.27l0.16,0.61c0.11,0.41,0.2,0.66,0.26,0.77c0,0.02,0,0.03,0,0.05
		c0.03,0.06,0.14,0.09,0.32,0.08s0.8-0.07,1.86-0.18c0.27-0.03,0.47-0.05,0.61-0.07c1.17-0.12,2.22-0.2,3.14-0.23
		c0.52-0.03,1.07-0.07,1.66-0.12c0.48,0.02,0.74-0.09,0.77-0.33c-0.02-0.11-0.02-0.24-0.02-0.39s-0.4-0.17-1.2-0.06
		c-0.84,0.08-1.62,0.14-2.32,0.19c-0.86,0.12-1.59,0.05-2.18-0.23c-0.2-0.19-0.3-0.43-0.3-0.71s0.05-0.82,0.14-1.58
		c0.09-0.81,0.16-1.33,0.21-1.56s0.11-0.39,0.19-0.48c0.14-0.12,0.46-0.24,0.97-0.35s1.36-0.21,2.54-0.3
		c0.77-0.09,1.27-0.14,1.5-0.15s0.34-0.12,0.33-0.34c-0.02-0.03-0.29-0.04-0.82-0.04s-1.23,0.05-2.09,0.13
		c-0.83,0.06-1.42,0.05-1.77-0.04s-0.61-0.26-0.76-0.53c-0.09-0.17-0.14-0.59-0.14-1.24c-0.03-1.08,0.06-1.87,0.28-2.37
		c0.11-0.23,0.22-0.38,0.33-0.42s0.3-0.05,0.56,0s0.54,0.06,0.82,0.05s0.87-0.09,1.76-0.21c1.53-0.22,2.63-0.24,3.3-0.07
		s1.14,0.6,1.41,1.29c0.08,0.2,0.09,0.42,0.05,0.66c-0.08,0.45-0.38,1.09-0.91,1.9c-0.27,0.41-0.41,0.63-0.42,0.68
		c0,0.11,0.02,0.23,0.05,0.35c0.59-0.03,0.98,0.05,1.16,0.25s0.25,0.4,0.22,0.62c-0.02,0.14-0.07,0.26-0.16,0.35
		s-0.3,0.19-0.63,0.28c-0.44-0.02-0.63,0.16-0.59,0.52c0,0.23-0.01,0.55-0.02,0.94l-0.05,0.52l0.77,0.02c0.55,0,0.89,0.02,1.04,0.05
		s0.25,0.11,0.32,0.23c0.09,0.19,0.12,0.41,0.09,0.66s-0.12,0.43-0.26,0.54c-0.09,0.05-0.31,0.12-0.66,0.21
		c-0.7-0.05-1.14-0.01-1.31,0.12c-0.03,0.3-0.02,0.5,0.02,0.61s0.16,0.18,0.33,0.2s0.35,0.03,0.54,0.02s0.53,0.01,1.03,0.06
		c0.91,0.11,1.48,0.2,1.73,0.27s0.42,0.21,0.52,0.41c0.06,0.14,0.1,0.3,0.12,0.48s-0.02,0.29-0.09,0.34
		c-0.06,0.06-0.19,0.11-0.38,0.14s-2.39,0.05-6.62,0.06s-6.44-0.01-6.64-0.06c-0.17-0.02-0.28-0.04-0.33-0.07s-0.1-0.12-0.16-0.26
		c-0.08-0.17-0.25-0.4-0.52-0.68c-0.27-0.25-0.44-0.49-0.52-0.71s-0.13-0.71-0.16-1.46c-0.08-1.12-0.05-3.43,0.07-6.91
		s0.27-5.8,0.42-6.94C167.41,3.74,167.62,3.04,167.92,2.7z M177.53,0.56c0.91-0.03,1.8-0.02,2.67,0.02
		c0.66,0.02,1.14,0.06,1.45,0.14s0.66,0.23,1.05,0.47c0.22,0.12,0.49,0.35,0.82,0.67s0.61,0.62,0.84,0.9l0.28,0.38v2.44
		c0,4.36-0.05,7.99-0.16,10.9c-0.11,2.48-0.27,4.02-0.49,4.62c-0.09,0.3-0.23,0.53-0.41,0.7s-0.36,0.23-0.55,0.19
		c-0.09-0.03-0.2-0.11-0.32-0.25s-0.2-0.27-0.25-0.41c-0.05-0.16-0.02-0.34,0.09-0.54c0.17-0.31,0.29-0.82,0.36-1.52
		s0.12-2.06,0.15-4.08c0.05-1.73,0.05-3.89,0.02-6.47s-0.08-4.02-0.14-4.34c-0.08-0.38-0.25-0.75-0.52-1.11s-0.55-0.62-0.87-0.76
		c-0.36-0.17-1.05-0.28-2.09-0.33c-0.58-0.03-1.57-0.02-2.96,0.05s-2.12,0.12-2.17,0.19c-0.03,0.02,0.02,0.12,0.14,0.32
		s0.23,0.32,0.3,0.36c0.11,0.05,0.62,0.11,1.52,0.19c1.38,0.12,2.15,0.23,2.32,0.33s0.36,0.36,0.56,0.81s0.29,0.79,0.26,1.02
		c-0.05,0.28-0.19,0.55-0.42,0.8l-0.12,0.28h1.12c0.8,0,1.28,0.09,1.45,0.26c0.06,0.05,0.11,0.18,0.13,0.4s0.02,0.39-0.01,0.52
		c-0.03,0.09-0.13,0.19-0.3,0.28c-0.39,0.17-1.43,0.29-3.12,0.36s-3.6,0.17-5.74,0.29c-0.98,0.02-1.61,0.01-1.88-0.02
		s-0.48-0.12-0.66-0.28c-0.11-0.11-0.18-0.19-0.2-0.23s-0.03-0.13-0.01-0.26c0-0.02,0-0.03,0-0.05c0.02-0.16,0.11-0.26,0.27-0.32
		s0.73-0.17,1.7-0.34c0.09-0.02,0.16-0.03,0.21-0.05c0.56-0.09,0.86-0.2,0.89-0.3c0.03-0.08,0.05-0.35,0.07-0.82l0.05-0.73
		l-0.35-0.05c-0.55-0.06-0.98-0.18-1.29-0.35s-0.45-0.36-0.4-0.56c0.05-0.19,0.42-0.39,1.12-0.61c0.47-0.14,0.75-0.24,0.84-0.3
		c0.11-0.05,0.21-0.16,0.3-0.34s0.12-0.3,0.07-0.36c-0.05-0.05-0.58-0.08-1.59-0.09c-1.02-0.03-1.59-0.06-1.71-0.09
		c-0.09-0.03-0.17-0.09-0.22-0.18s-0.07-0.18-0.06-0.27c0.03-0.08,0.11-0.17,0.23-0.28c0.42-0.34,1.36-0.59,2.81-0.75
		C174.59,0.75,176.2,0.61,177.53,0.56z M177.13,10.66c-0.2-0.05-0.91-0.04-2.11,0.02c-1.45,0.11-2.41,0.22-2.88,0.33l-0.21,0.28
		l-0.09,0.28c0.02,0.25,0.05,0.42,0.09,0.52s0.15,0.15,0.3,0.16c0.28,0.05,0.96,0.05,2.05,0.02s1.99-0.09,2.71-0.19
		c0.31-0.38,0.51-0.64,0.59-0.8c0.05-0.11,0.05-0.22,0-0.34S177.38,10.74,177.13,10.66z M176.38,15.77
		c-0.05-0.08-0.1-0.12-0.16-0.12c-0.19,0.02-0.76,0.09-1.71,0.22s-1.52,0.23-1.71,0.29c-0.31,0.06-0.52,0.14-0.61,0.25
		s-0.17,0.37-0.23,0.81c-0.09,0.45-0.1,0.71-0.02,0.77l0.26,0.16c0.56,0.02,0.95,0.01,1.17-0.02s0.55-0.05,1.01-0.07l2.16-0.35
		l-0.05-0.89C176.46,16.23,176.43,15.88,176.38,15.77z M176.24,4.99c-0.81-0.02-1.33,0-1.55,0.06s-0.36,0.2-0.42,0.43
		c-0.08,0.22-0.15,0.46-0.21,0.74s-0.09,0.43-0.07,0.46c0.05,0.08,0.55,0.08,1.52,0c1.05-0.02,1.65-0.09,1.8-0.21
		c0.19-0.27,0.3-0.59,0.35-0.98c0.03-0.19,0-0.31-0.11-0.38S177.02,5.01,176.24,4.99z"/>
	<path class="st0" d="M198.53,17.23c0.36-0.17,0.74-0.15,1.15,0.07c0.16,0.08,0.36,0.25,0.61,0.53s0.39,0.47,0.42,0.6
		c0.03,0.17-0.02,0.43-0.15,0.76s-0.29,0.59-0.48,0.76s-0.48,0.19-0.88,0.06s-0.7-0.36-0.9-0.67c-0.25-0.42-0.34-0.84-0.28-1.27
		C198.06,17.66,198.23,17.38,198.53,17.23z M199.42,2.88c0.16-0.09,0.38-0.09,0.67,0s0.49,0.23,0.6,0.42
		c0.09,0.16,0.11,0.88,0.05,2.16c-0.09,1.81-0.14,3.17-0.14,4.08c-0.09,2.14-0.18,3.54-0.25,4.21s-0.2,1.17-0.39,1.51
		c-0.11,0.2-0.21,0.33-0.32,0.38s-0.25,0.05-0.46,0.02c-0.28-0.02-0.44-0.05-0.47-0.09c-0.11-0.12-0.16-1.15-0.16-3.07
		c0-0.72,0-1.27,0-1.64c0.06-4.05,0.16-6.32,0.28-6.82C199.01,3.38,199.2,2.99,199.42,2.88z"/>
</g>
<g>
</g>
<g>
</g>
<g>
</g>
<g>
</g>
<g>
</g>
<g>
</g>
</svg>
