<?xml version="1.0" encoding="utf-8"?>
<!-- Generator: Adobe Illustrator 26.3.1, SVG Export Plug-In . SVG Version: 6.00 Build 0)  -->
<svg version="1.1" id="圖層_1" xmlns="http://www.w3.org/2000/svg" xmlns:xlink="http://www.w3.org/1999/xlink" x="0px" y="0px"
	 viewBox="0 0 152.77 22.31" style="enable-background:new 0 0 152.77 22.31;" xml:space="preserve">
<style type="text/css">
	.st0{fill:#B76D5D;}
</style>
<g>
	<path class="st0" d="M7.66,11.27l6.79-6.94l0.82,0.74l-6.84,7.01l6.94,7.03l-0.86,0.67l-6.84-6.94l-6.86,7.03l-0.77-0.77l6.84-7.03
		L0,5.1l0.67-0.89L7.66,11.27z"/>
	<path class="st0" d="M22.12,4.92c0.12-0.03,1-0.04,2.64-0.01s2.68,0.05,3.15,0.08c0.45,0.03,0.75,0.08,0.88,0.14s0.2,0.18,0.2,0.35
		c0,0.3-0.15,0.55-0.45,0.75c-0.11,0.08-0.23,0.12-0.36,0.14s-0.52,0.03-1.16,0.05c-2.22,0.03-3.77-0.08-4.66-0.33
		C21.99,6,21.79,5.77,21.74,5.41C21.71,5.15,21.84,4.98,22.12,4.92z M24.39,14.88c0.03,0,0.07,0,0.11-0.01s0.07-0.01,0.08-0.01h0.05
		c0.02-0.02,0.33-0.01,0.94,0.02c0.48,0.03,0.86,0.09,1.14,0.16s0.57,0.21,0.9,0.4c0.69,0.44,0.97,0.96,0.84,1.57
		c-0.08,0.44-0.26,1-0.55,1.68s-0.49,1.06-0.6,1.14c-0.08,0.03-0.44,0.07-1.08,0.12c-1.17,0.06-2.01,0.2-2.51,0.42
		c-0.45,0.2-0.74,0.27-0.87,0.21c-0.17-0.09-0.34-0.49-0.52-1.2s-0.3-1.55-0.38-2.53c-0.05-0.5-0.05-0.83-0.02-0.98
		c0.03-0.16,0.13-0.3,0.3-0.42C22.58,15.19,23.3,15.01,24.39,14.88z M24.58,11.53c0.22-0.03,0.77-0.04,1.64-0.04
		s1.36,0.03,1.45,0.06c0.06,0.02,0.12,0.11,0.16,0.28c0.06,0.22,0.05,0.43-0.04,0.62s-0.22,0.34-0.41,0.43
		c-0.25,0.11-0.93,0.17-2.05,0.19s-1.92-0.02-2.4-0.09c-0.47-0.09-0.76-0.27-0.87-0.54c-0.11-0.22,0.02-0.41,0.4-0.56
		C22.7,11.76,23.41,11.64,24.58,11.53z M23.29,8.34c0.28-0.03,1.12-0.04,2.51-0.04s2.13,0.04,2.23,0.08c0.11,0.05,0.2,0.15,0.26,0.3
		c0.08,0.36-0.1,0.63-0.54,0.82c-0.14,0.06-0.89,0.09-2.25,0.09c-1.08,0-1.8-0.02-2.17-0.06S22.65,9.43,22.4,9.3
		c-0.41-0.19-0.43-0.41-0.07-0.66C22.55,8.51,22.87,8.4,23.29,8.34z M26.73,16.68c-0.03-0.03-0.48-0.06-1.34-0.09s-1.39-0.03-1.59,0
		c-0.14,0.03-0.3,0.07-0.47,0.12l-0.33,0.12l0.05,0.73c0.02,0.48,0.05,0.77,0.12,0.87c0.03,0.06,0.08,0.1,0.14,0.11
		s0.24,0,0.54-0.01c1.31-0.09,2.23-0.2,2.74-0.33l0.21-0.07l0.05-0.45C26.9,17.12,26.86,16.79,26.73,16.68z M24.3,2.13
		c0.19-0.09,0.58-0.07,1.17,0.07c0.84,0.2,1.3,0.7,1.38,1.48c0.03,0.3,0,0.5-0.09,0.61S26.5,4.4,26.27,4.31
		c-0.12-0.06-0.39-0.25-0.81-0.56s-0.74-0.58-0.97-0.8c-0.16-0.16-0.26-0.27-0.3-0.34s-0.06-0.14-0.05-0.22
		C24.15,2.26,24.2,2.18,24.3,2.13z M35.31,0.21c0.17-0.17,0.34-0.22,0.52-0.14c0.16,0.09,0.28,0.43,0.38,1.01
		c0.05,0.39,0.11,0.6,0.19,0.63c0.09,0.06,0.54,0.12,1.34,0.19c1.31,0.11,2.12,0.21,2.41,0.29s0.45,0.27,0.45,0.55
		c0,0.3-0.13,0.55-0.4,0.77c-0.09,0.06-0.23,0.09-0.41,0.09s-0.59-0.03-1.23-0.09s-1.18-0.09-1.62-0.09
		c-0.27,0.02-0.43,0.03-0.5,0.05s-0.15,0.07-0.25,0.16c-0.11,0.12-0.19,0.27-0.23,0.45c-0.02,0.19,0.06,0.31,0.23,0.36
		s0.7,0.11,1.59,0.18c1.05,0.08,1.71,0.16,1.99,0.23c0.36,0.08,0.6,0.2,0.71,0.35s0.11,0.33-0.04,0.52
		c-0.11,0.14-0.25,0.24-0.42,0.29s-0.5,0.1-0.98,0.13c-0.17,0-0.48,0.02-0.91,0.05s-0.74,0.05-0.91,0.07
		c-0.61,0.03-0.95,0.07-1.03,0.12c-0.14,0.08-0.22,0.28-0.23,0.61c0,0.31,0.08,0.5,0.23,0.56c0.19,0.08,1.08,0.19,2.67,0.33
		c1.41,0.11,2.22,0.22,2.44,0.33c0.27,0.14,0.38,0.33,0.35,0.56s-0.2,0.4-0.52,0.49c-0.22,0.08-1.87,0.09-4.95,0.05
		s-4.83-0.11-5.25-0.19c-0.73-0.12-1.03-0.34-0.89-0.66c0.14-0.27,0.4-0.45,0.79-0.54c0.38-0.09,1.25-0.18,2.59-0.26l1.29-0.07
		l-0.05-0.47c-0.05-0.56-0.13-0.9-0.26-1.01c-0.05-0.05-0.56-0.08-1.55-0.09l-1.43-0.05l-0.19-0.26c-0.14-0.19-0.22-0.3-0.23-0.35
		c0-0.08,0.09-0.2,0.28-0.35s0.37-0.27,0.54-0.33c0.23-0.09,0.78-0.15,1.64-0.16l1.29-0.05V3.93c0-0.38-0.02-0.56-0.07-0.56
		c-0.11,0-0.54-0.05-1.29-0.14s-1.23-0.16-1.43-0.19c-0.58-0.12-0.96-0.3-1.15-0.54c-0.05-0.05-0.07-0.08-0.07-0.11
		s0.05-0.07,0.14-0.15c0.11-0.11,0.34-0.25,0.68-0.42l0.47-0.28h0.68c0.8,0.02,1.48,0.07,2.04,0.16l0.23,0.02V1.45
		c0-0.17,0.02-0.4,0.05-0.68C35.09,0.52,35.19,0.33,35.31,0.21z M34.66,10.38c0.8-0.06,1.74-0.04,2.84,0.07
		c0.69,0.06,1.18,0.2,1.49,0.4s0.58,0.58,0.83,1.12c0.19,0.41,0.3,0.78,0.35,1.12s0.05,1.16,0.02,2.44
		c-0.05,3.58-0.24,5.7-0.59,6.37c-0.11,0.22-0.26,0.35-0.45,0.4s-0.36,0-0.52-0.15s-0.24-0.32-0.25-0.5s0.04-0.54,0.13-1.05
		l0.19-0.89l-0.02-3c-0.02-1.61-0.04-2.63-0.08-3.07s-0.13-0.77-0.27-1.01c-0.08-0.14-0.2-0.26-0.38-0.35
		c-0.12-0.06-0.3-0.1-0.54-0.11s-0.94-0.01-2.11-0.01c-1.61,0-2.45,0.03-2.53,0.09c-0.05,0.05-0.09,0.19-0.14,0.42
		s-0.05,0.41-0.02,0.54l0.02,0.16h1.38c1.77,0,2.87,0.05,3.3,0.16c0.12,0.05,0.25,0.14,0.39,0.28s0.2,0.25,0.2,0.34
		s-0.05,0.2-0.16,0.33s-0.24,0.25-0.4,0.36l-0.3,0.19l-2.25,0.02c-0.16,0-0.32,0-0.5,0.01s-0.34,0.01-0.48,0.01s-0.28,0-0.41,0
		s-0.25,0-0.36,0.01s-0.2,0.01-0.27,0.01s-0.11,0-0.13,0h-0.09c-0.02,0-0.02,0.22-0.02,0.66v0.66h0.16c0.08,0,0.75-0.02,2.02-0.07
		c1.28-0.06,2.16-0.09,2.62-0.09h0.75l0.09,0.16c0.14,0.34,0.16,0.65,0.05,0.91c-0.08,0.17-0.24,0.28-0.49,0.33s-0.98,0.11-2.2,0.19
		c-1.91,0.11-2.88,0.19-2.93,0.23c0,0.02-0.02,0.42-0.07,1.22c-0.03,0.64-0.06,1.05-0.09,1.24s-0.08,0.3-0.14,0.35
		c-0.08,0.05-0.17,0.05-0.28,0.01s-0.19-0.11-0.23-0.22c-0.25-0.5-0.34-2.49-0.28-5.98c0.02-1.62-0.01-2.55-0.07-2.77
		c-0.05-0.19-0.06-0.33-0.04-0.43s0.11-0.22,0.25-0.36C32.01,10.78,33.02,10.52,34.66,10.38z"/>
	<path class="st0" d="M48.62,0.63c0.06-0.09,0.11-0.15,0.14-0.16s0.09-0.02,0.19,0c0.2,0.02,0.35,0.1,0.45,0.26s0.16,0.45,0.21,0.89
		c0.05,0.34,0.1,0.56,0.16,0.64S50,2.4,50.27,2.41c0.88,0.08,1.48,0.15,1.8,0.21s0.57,0.16,0.73,0.3c0.25,0.22,0.28,0.47,0.09,0.75
		l-0.14,0.23l-1.71,0.05l-1.71,0.05l0.02,0.59c0,0.44,0.02,0.69,0.07,0.75s0.14,0.12,0.29,0.18s0.51,0.14,1.09,0.27
		c0.66,0.14,1.08,0.24,1.27,0.3c0.28,0.09,0.51,0.22,0.69,0.39s0.35,0.42,0.5,0.76c0.12,0.3,0.2,0.55,0.21,0.76
		c0.02,0.21-0.01,0.53-0.07,0.95c-0.08,0.64-0.09,0.97-0.05,0.98c0.05,0,0.19-0.16,0.42-0.49L54.13,9l0.56-0.02
		c0.39,0,0.82,0.02,1.29,0.05c0.38,0.02,0.68,0.04,0.9,0.07s0.44,0.08,0.64,0.14s0.36,0.14,0.48,0.22s0.23,0.21,0.34,0.38
		s0.18,0.34,0.22,0.52s0.08,0.43,0.12,0.75s0.06,0.65,0.06,0.98s0,0.76,0,1.28c-0.06,4.19-0.14,6.55-0.23,7.1
		c-0.05,0.31-0.2,0.55-0.47,0.73c-0.3,0.2-0.57,0.16-0.82-0.12c-0.12-0.12-0.19-0.25-0.2-0.38s0.05-0.3,0.18-0.54l0.16-0.4v-1.43
		V16.9l-1.1,0.07c-0.78,0.05-1.3,0.09-1.57,0.14l-0.45,0.02l-0.02,0.56c0,0.17-0.03,0.63-0.09,1.38c0,0.53-0.05,0.84-0.14,0.91
		c-0.06,0.09-0.15,0.12-0.26,0.09c-0.16-0.06-0.27-0.25-0.34-0.56s-0.14-0.87-0.2-1.66c-0.05-0.48-0.09-0.73-0.12-0.75
		c-0.02-0.02-0.13,0.01-0.35,0.07s-0.84,0.12-1.85,0.19l-1.52,0.05l-0.02,1.36c0,1.38-0.06,2.11-0.19,2.2
		c-0.06,0.03-0.16,0.05-0.29,0.05s-0.23-0.02-0.29-0.05c-0.11-0.06-0.18-0.84-0.21-2.32l-0.02-0.96l-0.91-0.05
		c-1.34-0.06-2.09-0.22-2.23-0.47c-0.12-0.22-0.1-0.43,0.07-0.63c0.12-0.16,0.63-0.29,1.52-0.4c0.77-0.06,1.21-0.14,1.35-0.23
		c0.13-0.09,0.19-0.34,0.18-0.75v-0.45l-0.84-0.16c-1.02-0.16-1.62-0.32-1.8-0.49l-0.16-0.12l0.16-0.42l0.19-0.38l-0.12-0.89
		c-0.23-1.62-0.23-3.56,0-5.81c0-0.2,0.04-0.33,0.12-0.38c0.09-0.05,0.47-0.12,1.12-0.21c0.55-0.08,0.89-0.14,1.02-0.18
		s0.21-0.11,0.22-0.2c0-0.05,0.02-0.26,0.05-0.64s0.05-0.64,0.05-0.79V3.86l-0.54,0.02c-0.97,0.03-1.61-0.04-1.92-0.21
		c-0.17-0.06-0.27-0.17-0.3-0.33c-0.09-0.23-0.01-0.41,0.26-0.54s0.85-0.25,1.76-0.38l0.82-0.09l0.02-0.45
		C48.44,1.27,48.52,0.85,48.62,0.63z M48.39,7.85V7.17l-0.33,0.02c-0.44,0.02-0.75,0.1-0.95,0.26s-0.32,0.43-0.39,0.82
		c-0.12,0.5-0.15,0.79-0.08,0.88s0.33,0.11,0.79,0.06c0.38,0,0.61-0.03,0.69-0.08s0.15-0.18,0.2-0.39
		C48.35,8.61,48.37,8.32,48.39,7.85z M48.11,10.76c-0.11-0.05-0.34-0.05-0.7,0s-0.57,0.1-0.63,0.16c-0.03,0.06-0.06,0.2-0.08,0.42
		s-0.01,0.43,0.04,0.63c0.05,0.41,0.14,0.68,0.28,0.81s0.38,0.21,0.7,0.22c0.22,0.02,0.34-0.02,0.38-0.09
		c0.11-0.23,0.16-0.77,0.16-1.59C48.22,10.97,48.17,10.79,48.11,10.76z M53.45,10.83c-0.09-0.3-0.16-0.47-0.19-0.52l-0.05,0.07
		c-0.02,0.06-0.04,0.14-0.08,0.25s-0.07,0.21-0.11,0.34c-0.2,0.81-0.37,1.36-0.49,1.65s-0.34,0.58-0.66,0.88
		c-0.55,0.56-1.04,0.85-1.48,0.87c-0.14,0-0.32,0.04-0.53,0.12s-0.36,0.16-0.43,0.23c-0.09,0.08-0.12,0.24-0.09,0.49
		c0.05,0.3,0.07,0.48,0.07,0.54l0.05,0.21h1.34c0.89,0,1.48,0.02,1.78,0.05c0.27,0.02,0.43,0.02,0.49,0.02
		c0.05-0.03,0.09-0.13,0.12-0.3s0.07-0.66,0.12-1.45c0.06-0.8,0.12-1.49,0.19-2.09l0.09-0.89L53.45,10.83z M50.57,7.36
		c-0.48-0.06-0.79-0.09-0.93-0.09s-0.2,0.03-0.2,0.09c-0.03,0.06-0.03,0.3,0,0.7c0.03,0.38,0.08,0.61,0.14,0.69s0.26,0.15,0.59,0.2
		c0.42,0.09,0.72,0.21,0.89,0.36s0.27,0.39,0.28,0.71v0.28l-0.3,0.09c-0.23,0.05-0.57,0.09-1.01,0.14l-0.66,0.02v0.77
		c-0.03,0.91,0.09,1.43,0.35,1.57c0.08,0.05,0.27,0.04,0.59-0.02c0.42-0.05,0.73-0.16,0.91-0.35s0.34-0.48,0.47-0.89
		c0.2-0.69,0.32-1.41,0.35-2.18s-0.04-1.3-0.21-1.62c-0.06-0.12-0.18-0.23-0.34-0.3S51.02,7.4,50.57,7.36z M58.63,0.77
		c0.28-0.11,0.57-0.14,0.88-0.08s0.71,0.21,1.21,0.48c0.36,0.17,1.37,0.78,3.02,1.82s2.53,1.61,2.62,1.7
		c0.06,0.08,0.09,0.29,0.09,0.63s-0.05,0.56-0.14,0.66s-0.18,0.14-0.26,0.14c-0.14,0-0.76-0.34-1.85-1.03
		c-1.8-1.14-2.98-1.87-3.54-2.2s-1.02-0.56-1.38-0.7l-0.47-0.19l-0.28,0.14c-0.89,0.47-1.99,1.33-3.3,2.58l-0.82,0.82l-0.28-0.05
		c-0.31-0.05-0.47-0.13-0.47-0.26c0-0.19,0.47-0.75,1.41-1.69C56.73,1.93,57.91,1.01,58.63,0.77z M57.27,14.74
		c-0.02-0.41-0.05-0.65-0.11-0.74s-0.15-0.11-0.29-0.08c-0.12,0.03-0.48,0.08-1.08,0.14s-0.98,0.13-1.15,0.21s-0.27,0.23-0.28,0.47
		c-0.05,0.36,0.07,0.59,0.35,0.68c0.16,0.06,0.45,0.1,0.87,0.12s0.8,0,1.15-0.05l0.61-0.05L57.27,14.74z M56.45,10.59
		c-0.64-0.09-1.1-0.09-1.38,0.02c-0.11,0.05-0.18,0.12-0.22,0.23s-0.1,0.37-0.18,0.77c-0.06,0.41-0.1,0.66-0.12,0.77l-0.05,0.14
		l1.38-0.05l1.41-0.02l-0.05-0.19c0-0.03-0.05-0.29-0.16-0.77c-0.06-0.42-0.12-0.68-0.19-0.76S56.69,10.61,56.45,10.59z M56.5,5.76
		c0.73-0.06,1.82-0.06,3.26,0s2.3,0.15,2.6,0.26c0.17,0.06,0.27,0.21,0.29,0.45s-0.04,0.46-0.18,0.68l-0.14,0.23h-0.87
		c-2.09,0-3.94-0.05-5.53-0.16c-0.44-0.05-0.72-0.1-0.84-0.15s-0.23-0.18-0.3-0.39c-0.11-0.25-0.03-0.45,0.23-0.6
		S55.78,5.83,56.5,5.76z M60.86,10.83c0.12-0.08,0.3-0.06,0.54,0.05c0.16,0.08,0.27,0.19,0.35,0.33c0.05,0.09,0.07,0.23,0.07,0.4
		s-0.02,0.65-0.07,1.43c-0.06,1.2-0.11,2.26-0.14,3.16c-0.05,0.84-0.09,1.35-0.13,1.52s-0.15,0.29-0.34,0.35
		c-0.14,0.05-0.29,0.02-0.45-0.09l-0.26-0.14l0.05-2.51c0.03-1.72,0.07-2.88,0.12-3.49S60.73,10.89,60.86,10.83z M64.05,8.74
		c0.06-0.11,0.2-0.14,0.42-0.09s0.36,0.15,0.42,0.3c0.06,0.09,0.1,1.2,0.11,3.3s0,4.22-0.04,6.33c-0.03,1.34-0.05,2.16-0.06,2.45
		s-0.04,0.48-0.11,0.57c-0.09,0.16-0.23,0.25-0.42,0.28s-0.3-0.03-0.35-0.19c-0.09-0.27-0.14-2.6-0.14-7.01
		C63.87,10.96,63.92,8.97,64.05,8.74z"/>
	<path class="st0" d="M70.98,2.13c0.28-0.08,0.62-0.08,1.03,0c0.52,0.11,1.03,0.31,1.55,0.61c0.7,0.42,1.67,1.29,2.89,2.61
		s2.15,2.5,2.78,3.53c1.03,1.69,1.94,3,2.72,3.94c0.98,1.17,1.92,2.12,2.81,2.85c0.89,0.73,2.02,1.49,3.38,2.29
		c0.89,0.52,1.41,0.86,1.56,1.03s0.14,0.44-0.04,0.8l-0.16,0.4l-0.49-0.02c-0.31-0.03-0.67-0.14-1.07-0.34s-0.99-0.55-1.77-1.07
		c-1.42-0.94-2.62-1.88-3.59-2.81c-0.97-0.94-2.23-2.4-3.77-4.38c-0.66-0.81-1.01-1.22-1.05-1.22c-0.16,0-1.41,1.52-3.77,4.57
		c-1.22,1.58-2.17,2.75-2.86,3.52l-0.45,0.52l-0.3-0.05c-0.38-0.03-0.61-0.13-0.7-0.3c-0.05-0.06,0-0.19,0.13-0.38
		s0.5-0.62,1.09-1.29c0.64-0.72,1.02-1.17,1.15-1.36c0.3-0.38,0.94-1.27,1.92-2.67c0.59-0.84,1.34-1.82,2.23-2.93
		c0.48-0.61,0.73-0.95,0.73-1.03c0.03-0.14-0.11-0.46-0.42-0.96c-0.59-0.92-1.52-1.91-2.77-2.98c-0.52-0.45-0.88-0.75-1.1-0.88
		c-0.22-0.13-0.64-0.35-1.27-0.64c-0.7-0.3-1.05-0.54-1.05-0.73c0-0.08,0.08-0.19,0.23-0.33S70.84,2.18,70.98,2.13z"/>
	<path class="st0" d="M98.55,0.07c0.25-0.11,0.49-0.09,0.71,0.07s0.34,0.38,0.34,0.68c0,0.19,0.1,0.32,0.29,0.39
		s0.67,0.14,1.42,0.22c1.08,0.14,1.74,0.3,1.99,0.47c0.11,0.06,0.22,0.18,0.33,0.35s0.17,0.32,0.19,0.45
		c0.03,0.14,0.02,0.41-0.02,0.8s-0.12,0.71-0.21,0.96c-0.59,1.8-0.95,2.81-1.08,3.05c-0.05,0.09-0.18,0.18-0.4,0.25
		s-0.67,0.15-1.36,0.25c-0.59,0.08-0.95,0.14-1.05,0.19s-0.21,0.14-0.3,0.27s-0.13,0.23-0.12,0.29c0,0.06,0.1,0.12,0.29,0.16
		s0.64,0.09,1.32,0.14c1.09,0.08,1.78,0.14,2.06,0.2s0.52,0.17,0.73,0.34c0.36,0.3,0.54,0.61,0.54,0.94c0,0.17-0.05,0.35-0.15,0.54
		s-0.32,0.51-0.64,0.96c-0.31,0.44-0.56,0.78-0.75,1.03c-0.12,0.19-0.29,0.32-0.5,0.4s-0.67,0.21-1.37,0.4
		c-0.73,0.16-1.34,0.23-1.83,0.23c-0.16,0.11-0.34,0.35-0.56,0.71s-0.31,0.57-0.27,0.62s0.22,0.06,0.55,0.05
		c0.44-0.05,0.74-0.07,0.9-0.06s0.32-0.16,0.48-0.5c0.28-0.31,0.54-0.45,0.77-0.41s0.38,0.19,0.45,0.46c0,0.34,0.18,0.49,0.54,0.45
		c0.2,0.05,0.34,0.07,0.4,0.07s0.2,0.05,0.4,0.14c0.28,0.09,0.48,0.23,0.6,0.4c0.12,0.17,0.13,0.34,0.04,0.49
		c-0.06,0.14-0.52,0.29-1.36,0.45c-0.45,0.06-0.76,0.12-0.91,0.19c-0.27,0.11-0.48,0.55-0.63,1.34c-0.12,0.66-0.16,1.03-0.09,1.12
		c0.03,0.06,0.55,0.16,1.55,0.28c0.41,0.05,0.65,0.09,0.73,0.14c0.12,0.06,0.18,0.15,0.18,0.26s-0.07,0.23-0.2,0.36
		s-0.29,0.24-0.49,0.32s-0.59,0.17-1.17,0.28l-1.01-0.09l-0.3,0.68c-0.09,0.27-0.25,0.43-0.46,0.49s-0.37,0.05-0.48-0.02
		c-0.2-0.14-0.32-0.35-0.35-0.63c0.08-0.42,0.08-0.67,0-0.75s-0.45-0.27-1.12-0.59c-0.59-0.36-0.94-0.63-1.04-0.81
		s-0.14-0.58-0.11-1.21c0.03-0.55,0.04-0.87,0.02-0.96c-0.06-0.05-0.37-0.06-0.91-0.05c-0.5-0.05-0.84-0.09-1.03-0.14
		c-0.14-0.03-0.27-0.11-0.39-0.22s-0.18-0.23-0.2-0.34c-0.03-0.09-0.02-0.19,0.02-0.29s0.11-0.17,0.19-0.2
		c0.06-0.05,0.41-0.11,1.03-0.19s1.21-0.18,1.76-0.3c0.08-0.02,0.27-0.32,0.56-0.91l0.26-0.42h-1.22h-1.2l-0.16-0.16
		c-0.09-0.12-0.16-0.29-0.21-0.48s-0.11-0.62-0.19-1.28c-0.12-0.91-0.19-1.45-0.19-1.64c0-0.09,0.09-0.26,0.26-0.5
		s0.3-0.39,0.38-0.43s0.56-0.15,1.45-0.3c0.86-0.14,1.35-0.23,1.48-0.28c0.22-0.08,0.35-0.27,0.4-0.56c0.02-0.17-0.04-0.27-0.16-0.3
		s-0.48-0.02-1.05,0.02c-1.06,0.08-1.67,0.08-1.83,0c-0.08-0.03-0.13-0.15-0.16-0.35c-0.06-0.31-0.13-0.93-0.2-1.84
		s-0.11-1.63-0.11-2.14c0-0.8,0.04-1.37,0.11-1.72s0.2-0.55,0.39-0.6c0.12-0.05,0.59-0.11,1.41-0.19c0.77-0.08,1.23-0.12,1.38-0.14
		l0.19-0.05v-0.4c0-0.27,0.07-0.46,0.2-0.6S98.47,0.1,98.55,0.07z M97.82,11.18c-0.03-0.03-0.18-0.06-0.45-0.08
		s-0.48-0.03-0.63-0.01c-0.03,0-0.08,0-0.14,0.01s-0.14,0.02-0.25,0.04s-0.19,0.03-0.27,0.05c-0.5,0.06-0.78,0.18-0.84,0.35
		c-0.05,0.08-0.05,0.21-0.02,0.4s0.09,0.34,0.16,0.45l0.12,0.19l1.08,0.02h1.1l0.16-0.14c0.06-0.08,0.1-0.14,0.12-0.2
		s0.02-0.21,0-0.48C97.93,11.42,97.88,11.22,97.82,11.18z M98.03,5.76c-0.08-0.09-0.33-0.13-0.75-0.12c-0.62,0-1.07,0.07-1.32,0.2
		s-0.39,0.36-0.39,0.69c0,0.17,0.04,0.29,0.11,0.36s0.21,0.1,0.41,0.08c0.19,0,0.5-0.04,0.93-0.13s0.7-0.15,0.81-0.2
		c0.16-0.08,0.26-0.22,0.3-0.42S98.14,5.87,98.03,5.76z M97.87,3.07c-0.27-0.08-0.64-0.09-1.12-0.02c-0.52,0.06-0.83,0.16-0.94,0.3
		c-0.06,0.09-0.09,0.21-0.09,0.34s0.04,0.24,0.12,0.32c0.08,0.08,0.41,0.12,1.01,0.12c0.44,0,0.7-0.01,0.8-0.02s0.17-0.05,0.23-0.12
		c0.09-0.09,0.14-0.26,0.14-0.49c0.02-0.17,0.02-0.27,0.01-0.3S97.96,3.11,97.87,3.07z M99.27,17.2c-0.05-0.09-0.14-0.14-0.29-0.14
		s-0.49,0.02-1.02,0.07c-0.34,0.03-0.55,0.13-0.61,0.3c-0.11,0.06-0.19,0.23-0.25,0.52s-0.04,0.51,0.04,0.68
		c0.03,0.12,0.2,0.27,0.5,0.42s0.61,0.26,0.9,0.3c0.12,0.02,0.21,0.02,0.25,0s0.08-0.07,0.13-0.16c0.16-0.25,0.3-0.77,0.42-1.57
		C99.37,17.43,99.35,17.29,99.27,17.2z M101.94,10.78c-0.53-0.05-1.1-0.05-1.7-0.01s-0.94,0.09-1.02,0.15
		c-0.08,0.09-0.07,0.45,0.02,1.05l0.07,0.4l0.42-0.02c0.75-0.08,1.3-0.18,1.66-0.3s0.64-0.33,0.84-0.61
		c0.12-0.19,0.18-0.34,0.16-0.45c-0.02-0.06-0.05-0.11-0.09-0.14S102.15,10.79,101.94,10.78z M101.29,3
		c-0.38-0.03-0.77-0.05-1.17-0.05c-0.42,0-0.67,0.03-0.75,0.09s-0.12,0.25-0.12,0.56v0.47l0.98,0.02c0.55,0.02,0.93,0.05,1.16,0.11
		s0.43,0.15,0.6,0.29l0.26,0.19l0.07-0.16c0.03-0.09,0.04-0.3,0.02-0.62s-0.05-0.52-0.09-0.6C102.19,3.18,101.87,3.08,101.29,3z
		 M102.2,5.25c-0.03-0.08-0.1-0.08-0.21,0c-0.11,0.14-0.63,0.27-1.57,0.38c-0.78,0.11-1.17,0.25-1.17,0.42
		c0,0.06,0.05,0.14,0.16,0.23c0.06,0.08,0.13,0.12,0.2,0.13s0.29,0,0.64-0.01c0.42-0.02,0.72-0.05,0.89-0.09s0.33-0.13,0.47-0.26
		c0.12-0.09,0.25-0.23,0.39-0.42S102.2,5.31,102.2,5.25z M107.1,2.27c0.09-0.03,0.2-0.04,0.33-0.01s0.2,0.06,0.23,0.11
		c0.05,0.09,0.02,0.34-0.09,0.75c-0.08,0.28-0.11,0.43-0.09,0.45c0.06,0.08,1.52,0.14,4.36,0.19l2.2,0.07l0.16,0.16l-0.09,1.12
		l-0.16,0.14c-0.45,0.03-0.88,0.05-1.29,0.05c-0.45,0-0.72,0.03-0.8,0.09c-0.14,0.14-0.34,0.55-0.6,1.22s-0.5,1.45-0.74,2.32
		c-0.3,1.09-0.7,2.51-1.22,4.24c-0.23,0.78-0.29,1.3-0.16,1.55c0.16,0.3,0.58,0.82,1.27,1.56c0.69,0.74,1.3,1.34,1.83,1.79
		c0.48,0.41,1.05,0.84,1.69,1.29c0.06,0.05,0.17,0.16,0.32,0.35s0.21,0.49,0.2,0.91c-0.08,0.44-0.2,0.66-0.38,0.66
		c-0.41,0-0.79-0.12-1.15-0.36s-0.72-0.53-1.08-0.86c-0.88-0.64-1.9-1.59-3.07-2.86c-0.41-0.44-0.64-0.63-0.69-0.57
		s-0.37,0.61-0.95,1.68c-0.66,1.17-1.06,1.87-1.22,2.09s-0.33,0.31-0.52,0.28c-0.28-0.05-0.41-0.23-0.38-0.56
		c0.02-0.16,0.18-0.49,0.49-1.01c0.89-1.55,1.48-2.77,1.78-3.68c0.08-0.25,0.09-0.45,0.04-0.6s-0.36-0.67-0.9-1.56
		c-0.86-1.39-1.4-2.32-1.63-2.8s-0.33-0.89-0.32-1.23c0.02-0.17,0.03-0.28,0.05-0.32s0.05-0.08,0.12-0.13c0.2-0.06,0.42,0,0.64,0.2
		s0.54,0.58,0.93,1.16c1.11,1.61,1.72,2.47,1.83,2.58c0.06,0.06,0.11,0.09,0.13,0.09s0.06-0.05,0.11-0.14
		c0.19-0.39,0.51-1.49,0.96-3.29s0.73-3.11,0.82-3.93l-0.63-0.07c-1.7,0-2.8,0.05-3.28,0.14l-0.3,0.05l-0.38,0.61
		c-0.25,0.39-0.45,0.63-0.61,0.73s-0.3,0.07-0.42-0.07c-0.05-0.05-0.07-0.1-0.07-0.16s0.03-0.2,0.09-0.42
		c0.06-0.23,0.18-0.57,0.36-1.01s0.32-0.73,0.41-0.87c0.27-0.44,0.61-0.89,1.04-1.37S106.98,2.29,107.1,2.27z"/>
	<path class="st0" d="M124.33,0.3c0.12-0.08,0.23-0.11,0.33-0.11s0.24,0.06,0.45,0.15c0.3,0.17,0.8,0.55,1.52,1.15
		c0.45,0.41,0.78,0.65,0.98,0.73c0.58,0.2,2.1,0.38,4.57,0.52c1.17,0.08,2.02,0.18,2.55,0.32s0.97,0.33,1.31,0.6
		c0.27,0.22,0.44,0.48,0.52,0.77s0.05,0.59-0.07,0.89c-0.09,0.17-0.36,0.48-0.79,0.91s-0.73,0.7-0.9,0.8
		c-0.44,0.22-0.76,0.24-0.96,0.07l-0.14-0.12l0.12-0.28c0.12-0.23,0.28-0.51,0.47-0.82c0.3-0.5,0.42-0.8,0.38-0.91
		c-0.06-0.17-0.38-0.3-0.96-0.4c-1.28-0.44-3.74-0.62-7.38-0.54c-1.62,0.08-2.78,0.15-3.47,0.21c-1.14,0.09-1.84,0.15-2.1,0.18
		s-0.5,0.11-0.74,0.27c-0.02,0.05-0.03,0.09-0.05,0.14c-0.06,0.2-0.17,0.61-0.33,1.22c-0.28,1.11-0.48,1.72-0.61,1.83
		c-0.19,0.19-0.34,0.12-0.47-0.19c-0.06-0.12-0.07-0.41-0.02-0.87c0.08-0.86,0.23-1.62,0.45-2.27c0.17-0.48,0.37-0.82,0.6-1.01
		s0.6-0.32,1.11-0.4c0.39-0.06,1.12-0.16,2.18-0.28c0.28-0.03,0.59-0.07,0.93-0.12s0.6-0.08,0.8-0.11s0.32-0.04,0.36-0.04
		c0.22-0.03,0.34-0.07,0.38-0.11s-0.02-0.11-0.16-0.22c-0.53-0.44-0.9-0.84-1.1-1.22c-0.08-0.16-0.12-0.26-0.12-0.3
		s0.02-0.11,0.05-0.19C124.11,0.45,124.22,0.36,124.33,0.3z M124.73,6.3c0.59-0.05,1.3-0.05,2.13,0c0.77,0.05,1.27,0.09,1.52,0.14
		c0.53,0.14,0.91,0.35,1.14,0.62s0.34,0.65,0.34,1.14c0,0.17-0.05,0.3-0.14,0.39s-0.36,0.25-0.8,0.48c-1.09,0.56-1.7,1.22-1.8,1.97
		c-0.08,0.48-0.07,0.86,0.04,1.11s0.35,0.6,0.74,1.02l0.89,0.54l2.58,0.05c3.16,0.05,4.88,0.15,5.18,0.3
		c0.31,0.17,0.44,0.37,0.38,0.59c-0.02,0.12-0.09,0.24-0.21,0.35s-0.25,0.18-0.38,0.21c-0.39,0.06-1.74,0.13-4.05,0.21
		c-1.12,0.03-1.82,0.05-2.09,0.07c0.25,0.28,0.46,0.77,0.63,1.48c0.06,0.48,0.05,0.89-0.02,1.22c-0.05,0.3-0.22,0.65-0.52,1.07
		s-0.62,0.76-0.98,1.04c-0.3,0.22-0.74,0.51-1.32,0.87s-1.06,0.59-1.42,0.68c-1.11,0.36-2.27,0.43-3.49,0.21
		c-1.56-0.48-2.58-1.08-3.05-1.78c-0.09-0.11-0.13-0.24-0.12-0.4s0.08-0.28,0.19-0.38c0.11-0.12,0.27-0.19,0.47-0.19
		c0.16,0,0.3,0.03,0.43,0.09s0.42,0.25,0.86,0.56c0.67,0.44,1.22,0.7,1.65,0.79s1.11,0.05,2.03-0.11c1.03-0.17,2.16-0.83,3.38-1.97
		l0.21-0.3l0.23-0.63c0.05-0.44,0.01-0.77-0.12-0.98c-0.09-0.23-0.23-0.46-0.42-0.68c-0.19-0.22-0.34-0.37-0.45-0.47l-0.16-0.16
		l-4.62-0.02h-4.62l-0.16-0.23c-0.17-0.25-0.17-0.48,0-0.68c0.23-0.25,0.63-0.42,1.18-0.5s1.84-0.18,3.86-0.29
		c0.73,0.03,1.44,0.04,2.11,0.02c0.52,0.03,0.66-0.02,0.42-0.15s-0.45-0.38-0.63-0.74c-0.28-0.44-0.33-1.07-0.14-1.9l0.21-0.61
		c0.22-0.47,0.64-1.05,1.27-1.76c0.34-0.39,0.5-0.6,0.46-0.63s-0.51-0.02-1.42,0.05c-0.89,0.05-1.64,0.08-2.25,0.09
		c-0.42,0.02-0.68,0.02-0.77,0.01s-0.19-0.04-0.28-0.11c-0.14-0.09-0.25-0.22-0.33-0.38s-0.09-0.3-0.02-0.45
		c0.09-0.2,0.36-0.39,0.79-0.55S124.16,6.35,124.73,6.3z"/>
	<path class="st0" d="M150.53,17.13c0.36-0.17,0.74-0.15,1.15,0.07c0.16,0.08,0.36,0.25,0.61,0.53s0.39,0.47,0.42,0.6
		c0.03,0.17-0.02,0.43-0.15,0.76s-0.29,0.59-0.48,0.76s-0.48,0.19-0.88,0.06s-0.7-0.36-0.9-0.67c-0.25-0.42-0.34-0.84-0.28-1.27
		C150.06,17.57,150.23,17.29,150.53,17.13z M151.42,2.79c0.16-0.09,0.38-0.09,0.67,0s0.49,0.23,0.6,0.42
		c0.09,0.16,0.11,0.87,0.05,2.16c-0.09,1.81-0.14,3.17-0.14,4.08c-0.09,2.14-0.18,3.54-0.25,4.21s-0.2,1.17-0.39,1.51
		c-0.11,0.2-0.21,0.33-0.32,0.38s-0.25,0.05-0.46,0.02c-0.28-0.02-0.44-0.05-0.47-0.09c-0.11-0.12-0.16-1.15-0.16-3.07
		c0-0.72,0-1.27,0-1.64c0.06-4.05,0.16-6.32,0.28-6.82C151.01,3.28,151.2,2.9,151.42,2.79z"/>
</g>
<g>
</g>
<g>
</g>
<g>
</g>
<g>
</g>
<g>
</g>
<g>
</g>
</svg>
