<?xml version="1.0" encoding="utf-8"?>
<!-- Generator: Adobe Illustrator 26.3.1, SVG Export Plug-In . SVG Version: 6.00 Build 0)  -->
<svg version="1.1" id="圖層_1" xmlns="http://www.w3.org/2000/svg" xmlns:xlink="http://www.w3.org/1999/xlink" x="0px" y="0px"
	 viewBox="0 0 150.83 31.43" style="enable-background:new 0 0 150.83 31.43;" xml:space="preserve">
<style type="text/css">
	.st0{fill:#AD9292;}
	.st1{fill:#FFFFFF;}
</style>
<g>
	<path class="st0" d="M135.12,31.43H15.72C7.04,31.43,0,24.4,0,15.72v0C0,7.04,7.04,0,15.72,0l119.4,0
		c8.68,0,15.72,7.04,15.72,15.72v0C150.83,24.4,143.8,31.43,135.12,31.43z"/>
	<g>
		<path class="st1" d="M27.53,21.57c0.28-0.11,0.49-0.09,0.63,0.05c0.08,0.09,0.21,0.37,0.4,0.82c0.22,0.56,0.52,1.09,0.91,1.59
			c0.22,0.3,0.36,0.52,0.41,0.66s0.06,0.27,0.01,0.38c-0.08,0.19-0.22,0.29-0.43,0.3s-0.44-0.08-0.69-0.28
			c-0.36-0.28-0.7-0.64-1.02-1.09s-0.56-0.89-0.71-1.32c-0.12-0.31-0.16-0.52-0.12-0.63C27.03,21.82,27.23,21.66,27.53,21.57z
			 M32.03,6.69c0.11-0.05,0.2-0.08,0.28-0.09c0.11,0,0.21,0.07,0.32,0.2s0.15,0.29,0.15,0.46c0,0.09-0.09,0.24-0.26,0.43
			s-0.39,0.39-0.66,0.57c-0.27,0.19-0.57,0.48-0.93,0.87s-0.64,0.77-0.88,1.12c-0.22,0.34-0.41,0.69-0.57,1.03s-0.24,0.57-0.22,0.68
			c0.02,0.06,0.04,0.1,0.07,0.11s0.12,0.01,0.26,0.01c0.19-0.02,0.68-0.12,1.48-0.3c1.27-0.34,1.98-0.45,2.13-0.33
			c0.09,0.06,0.18,0.16,0.25,0.28s0.11,0.23,0.11,0.33s-0.32,0.48-0.96,1.15c-0.44,0.45-0.75,0.79-0.94,1.02s-0.45,0.58-0.8,1.07
			c-0.53,0.81-0.86,1.38-1,1.7s-0.16,0.61-0.08,0.86c0.08,0.22,0.19,0.35,0.33,0.39s0.36-0.03,0.66-0.2
			c0.25-0.12,0.51-0.28,0.77-0.47s0.43-0.32,0.49-0.4c0.03-0.06,0.06-0.23,0.09-0.52c0.05-0.36,0.11-0.6,0.2-0.73
			c0.09-0.12,0.25-0.2,0.5-0.23c0.12-0.02,0.21-0.01,0.27,0.01s0.16,0.11,0.32,0.27c0.25,0.27,0.54,0.66,0.86,1.2
			s0.48,0.88,0.48,1.03c0,0.08-0.05,0.16-0.15,0.26s-0.19,0.14-0.27,0.14c-0.23,0-0.6-0.15-1.1-0.45l-0.33-0.21l-0.98,0.66
			c-0.62,0.44-1.06,0.71-1.3,0.82s-0.48,0.16-0.71,0.14c-0.53-0.05-0.94-0.21-1.22-0.49c-0.25-0.25-0.35-0.59-0.3-1.03
			c0.03-0.31,0.2-0.84,0.5-1.57c0.3-0.73,0.64-1.48,1.02-2.23c0.27-0.52,0.41-0.81,0.45-0.89s0.01-0.13-0.07-0.15
			s-0.33-0.07-0.75-0.15c-0.61-0.08-1-0.16-1.16-0.26s-0.25-0.27-0.25-0.54c0-0.31,0.14-0.81,0.42-1.5s0.58-1.24,0.89-1.66
			s0.76-0.9,1.35-1.43S31.78,6.8,32.03,6.69z M30.04,21.08c0.12-0.09,0.23-0.14,0.3-0.14c0.11,0,0.4,0.23,0.87,0.69
			s0.77,0.79,0.89,1c0.06,0.16,0.11,0.4,0.13,0.73s0,0.53-0.06,0.61c-0.03,0.06-0.06,0.09-0.09,0.08s-0.12-0.04-0.26-0.08
			c-0.25-0.12-0.59-0.42-1.01-0.88s-0.72-0.86-0.89-1.21C29.75,21.5,29.79,21.24,30.04,21.08z M32.55,19.95
			c0.3-0.11,0.76,0.14,1.38,0.75c0.86,0.81,1.12,1.36,0.77,1.64c-0.08,0.06-0.14,0.09-0.18,0.09s-0.12-0.02-0.25-0.07
			c-0.17-0.06-0.38-0.18-0.63-0.35c-0.84-0.55-1.3-1.06-1.38-1.55C32.23,20.22,32.33,20.05,32.55,19.95z M39.74,5.56
			c0.14-0.03,0.56-0.03,1.25,0s1.18,0.07,1.44,0.12c1.12,0.17,1.77,0.46,1.92,0.87c0.09,0.23,0.04,0.55-0.16,0.94
			c-0.11,0.2-0.45,0.66-1.01,1.37s-1.05,1.31-1.48,1.79c-0.48,0.52-0.73,0.8-0.73,0.84c0,0.14,0.98,0.97,2.95,2.48
			c1.25,0.97,2.29,1.73,3.12,2.27c0.59,0.39,0.97,0.69,1.14,0.89s0.25,0.46,0.25,0.77c0,0.2-0.03,0.34-0.09,0.41
			s-0.2,0.11-0.42,0.11s-0.44-0.05-0.67-0.16s-0.66-0.37-1.3-0.77c-1.09-0.69-2.02-1.37-2.79-2.04c-1.36-1.17-2.39-1.96-3.09-2.37
			c-0.25-0.12-0.41-0.16-0.49-0.12c-0.08,0.06-0.49,0.57-1.24,1.52c-1.25,1.58-2.09,2.52-2.51,2.81l-0.16,0.12l-0.19-0.16
			c-0.11-0.09-0.2-0.21-0.26-0.35s-0.07-0.27-0.02-0.4c0.11-0.27,0.71-1.08,1.8-2.44c0.94-1.17,1.47-1.83,1.59-1.97l0.09-0.19
			l-0.19-0.16c-0.2-0.14-0.55-0.38-1.03-0.73c-0.95-0.66-1.43-1.1-1.43-1.34c0-0.2,0.17-0.5,0.52-0.89
			c0.41-0.44,0.82-1.01,1.24-1.71c0.22-0.39,0.41-0.65,0.59-0.77c0.11-0.11,0.32-0.25,0.64-0.43S39.59,5.59,39.74,5.56z
			 M37.73,23.19c0.14-0.12,0.25-0.19,0.32-0.2s0.36,0.09,0.88,0.29c1.03,0.39,1.61,0.6,1.73,0.63c0.94,0.34,1.52,0.57,1.75,0.67
			s0.4,0.21,0.53,0.32c0.14,0.14,0.22,0.27,0.23,0.38c0,0.2-0.13,0.4-0.4,0.59L42.55,26l-0.56-0.12c-0.42-0.06-0.99-0.22-1.71-0.48
			s-1.29-0.48-1.71-0.67c-0.36-0.17-0.65-0.35-0.88-0.54s-0.34-0.33-0.34-0.42C37.35,23.6,37.48,23.41,37.73,23.19z M42.04,7.16
			c-0.08-0.08-0.27-0.12-0.56-0.14c-0.81,0.02-1.46,0.15-1.96,0.4s-0.97,0.7-1.44,1.34c-0.17,0.22-0.27,0.36-0.3,0.42
			s-0.02,0.12,0.05,0.16c0.08,0.09,0.32,0.3,0.73,0.61s0.68,0.51,0.82,0.59c0.12,0.08,0.21,0.12,0.25,0.13s0.1-0.01,0.18-0.06
			c0.23-0.12,0.59-0.48,1.05-1.05s0.8-1.09,1.01-1.52c0.14-0.28,0.23-0.48,0.26-0.59S42.12,7.24,42.04,7.16z M38.31,18.5
			c0.09-0.08,0.19-0.12,0.28-0.12s0.3,0.05,0.63,0.16c0.45,0.14,1.08,0.38,1.89,0.73s1.29,0.58,1.46,0.7
			c0.22,0.17,0.33,0.44,0.33,0.8c0,0.22-0.05,0.37-0.16,0.45s-0.3,0.09-0.59,0.02c-0.62-0.11-1.34-0.35-2.13-0.71
			s-1.34-0.69-1.64-0.97c-0.17-0.17-0.27-0.36-0.28-0.57S38.16,18.61,38.31,18.5z"/>
		<path class="st1" d="M53.52,5.16c0.11-0.06,0.19-0.1,0.23-0.11s0.16,0.04,0.33,0.15c0.2,0.12,0.32,0.28,0.35,0.46
			s0.05,0.71,0.07,1.61l0.02,1.55l0.19,0.05c0.12,0.03,0.58,0.07,1.36,0.12c0.78,0.03,1.25,0.06,1.39,0.08s0.27,0.1,0.36,0.22
			c0.19,0.22,0.2,0.51,0.02,0.87c-0.09,0.16-0.23,0.26-0.41,0.32s-0.61,0.11-1.3,0.15c-0.78,0.06-1.25,0.11-1.39,0.14
			s-0.25,0.12-0.29,0.26c-0.06,0.2-0.1,0.91-0.11,2.11s0.02,2.38,0.08,3.54c0.05,1.11,0.08,1.79,0.11,2.05s0.07,0.39,0.13,0.39
			c0.05,0,0.28-0.13,0.7-0.4c0.28-0.19,0.47-0.3,0.56-0.33s0.17-0.03,0.23,0c0.09,0.05,0.17,0.12,0.23,0.23l0.09,0.21l-0.91,1.01
			l-0.94,0.98l-0.09,0.59c-0.08,0.58-0.16,1.55-0.26,2.91c-0.03,0.73-0.07,1.2-0.12,1.41s-0.13,0.35-0.26,0.45
			c-0.14,0.14-0.28,0.18-0.42,0.11s-0.29-0.27-0.45-0.6l-0.16-0.33l0.16-1.01c0.12-0.64,0.2-1.1,0.23-1.38
			c0.02-0.22,0-0.34-0.06-0.35s-0.27,0.06-0.64,0.23c-0.62,0.3-1.12,0.48-1.5,0.56c-0.17,0.03-0.35,0-0.53-0.08
			s-0.31-0.21-0.39-0.36c-0.06-0.14-0.07-0.41-0.02-0.8c0.06-0.5,0.19-1.12,0.39-1.85s0.64-2.26,1.35-4.57
			c0.72-2.38,1.14-3.79,1.25-4.25s0.11-0.72-0.04-0.79c-0.09-0.03-0.41-0.07-0.94-0.12c-1.03-0.09-1.62-0.21-1.78-0.35
			c-0.17-0.16-0.21-0.35-0.12-0.59c0.16-0.31,0.88-0.52,2.18-0.63l0.8-0.07l-0.02-1.55c0-0.88,0.02-1.44,0.06-1.69
			S53.4,5.27,53.52,5.16z M53.38,17.89c-0.05-1.97-0.11-2.95-0.19-2.95c-0.02-0.02-0.05,0.02-0.09,0.12
			c-0.25,0.62-0.7,1.88-1.36,3.75c-0.17,0.53-0.34,1.12-0.5,1.78s-0.25,1.1-0.27,1.34c0,0.17,0.04,0.27,0.12,0.3
			c0.19,0.03,0.7-0.31,1.52-1.03l0.7-0.73L53.38,17.89z M58.19,6.48c0.16-0.05,0.8-0.1,1.95-0.15s2.12-0.09,2.95-0.11
			c3.8-0.02,6.14,0.02,7.03,0.12c0.3,0.05,0.5,0.12,0.61,0.21s0.17,0.25,0.19,0.47c0.02,0.16-0.05,0.31-0.19,0.47l-0.16,0.19
			l-1.45,0.09c-0.91,0.06-1.7,0.09-2.39,0.09c-0.64,0.02-1.75,0.02-3.33,0.02l-2.41,0.02l-0.21,0.26c-0.28,0.41-0.59,1.03-0.91,1.88
			c-0.22,0.61-0.2,1.09,0.07,1.43c0.11,0.16,0.2,0.24,0.28,0.26c0.06,0.02,0.7,0,1.9-0.05l1.78-0.07l0.4,0.23
			c0.47,0.31,0.8,0.76,1.01,1.34c0.41,1.02,0.48,3.6,0.21,7.76c-0.12,1.98-0.16,3.01-0.09,3.07c0.05,0.05,0.96,0.1,2.74,0.16
			c2.23,0.08,3.59,0.18,4.08,0.3c0.23,0.05,0.43,0.15,0.6,0.32s0.25,0.36,0.27,0.57c0,0.12-0.08,0.25-0.25,0.38s-0.35,0.2-0.55,0.21
			c-0.19,0.03-0.74,0.02-1.66-0.05c-1.31-0.09-2.32-0.14-3.04-0.15s-2.13,0.01-4.25,0.06c-3.27,0.08-5.07,0.05-5.41-0.07
			c-0.2-0.06-0.23-0.23-0.09-0.49c0.12-0.31,0.4-0.54,0.82-0.67s1.34-0.25,2.77-0.36l1.57-0.16l0.42-0.45
			c0.27-0.3,0.42-0.54,0.47-0.73c0.14-0.38,0.25-1.1,0.33-2.18c0.06-0.89,0.05-2.15-0.02-3.79s-0.19-2.64-0.33-3.01
			c-0.16-0.47-0.33-0.71-0.52-0.73c-0.11-0.02-0.64-0.04-1.59-0.07c-1.03,0-1.62-0.01-1.78-0.02c-0.53-0.06-0.95-0.37-1.27-0.91
			c-0.16-0.28-0.14-1.14,0.05-2.58c0.11-0.86,0.16-1.33,0.14-1.41c-0.02-0.09-0.12-0.16-0.33-0.21c-0.28-0.05-0.53-0.13-0.74-0.25
			s-0.34-0.25-0.39-0.41c-0.05-0.17,0-0.34,0.15-0.5S57.94,6.54,58.19,6.48z M59.5,15.03c0.56-0.09,1.16-0.05,1.78,0.12
			c0.27,0.06,0.53,0.2,0.8,0.4c0.23,0.2,0.38,0.39,0.45,0.57c0.06,0.18,0.09,0.5,0.09,0.97c0.02,0.48-0.05,1.05-0.21,1.71
			c-0.22,1.08-0.45,1.7-0.68,1.85c-0.11,0.08-0.59,0.15-1.43,0.21c-0.66,0.03-1.05,0.04-1.17,0.04s-0.23-0.04-0.3-0.11
			c-0.14-0.16-0.27-0.55-0.38-1.17s-0.17-1.36-0.19-2.2c-0.02-0.62-0.01-1.05,0.02-1.28c0.03-0.23,0.09-0.39,0.16-0.5
			C58.71,15.31,59.06,15.11,59.5,15.03z M60.67,16.7c-0.09-0.03-0.3-0.05-0.62-0.07s-0.54,0-0.67,0.05
			c-0.11,0.02-0.17,0.1-0.19,0.25s0.01,0.43,0.07,0.86c0.12,0.88,0.24,1.37,0.35,1.48c0.08,0.06,0.28,0.09,0.61,0.07
			c0.27-0.02,0.45-0.06,0.56-0.14s0.21-0.23,0.3-0.45c0.08-0.14,0.11-0.43,0.09-0.87c0-0.38-0.04-0.64-0.13-0.81
			S60.84,16.77,60.67,16.7z M67.91,11.75c0.47-0.06,0.97-0.08,1.5-0.05s0.94,0.1,1.22,0.21c0.41,0.16,0.73,0.45,0.96,0.89
			s0.32,0.91,0.26,1.43c-0.08,0.59-0.42,1.4-1.03,2.41c-0.66,1.11-1.03,1.77-1.11,1.97s-0.1,0.45-0.04,0.73
			c0.19,0.64,0.48,1.3,0.87,1.99c0.09,0.2,0.27,0.4,0.54,0.59c0.53,0.39,0.82,0.69,0.87,0.89c0.08,0.22,0.07,0.42-0.02,0.6
			s-0.23,0.27-0.42,0.27c-0.38,0.03-0.69-0.07-0.95-0.3s-0.62-0.73-1.09-1.48c-0.31-0.55-0.5-0.82-0.56-0.81s-0.2,0.25-0.4,0.74
			c-0.48,1.05-0.79,1.6-0.91,1.66c-0.06,0.02-0.17-0.02-0.33-0.12c-0.11-0.08-0.17-0.13-0.19-0.16s-0.02-0.14,0-0.33
			c0.03-0.38,0.2-0.81,0.49-1.31c0.34-0.56,0.56-1.12,0.66-1.66l0.07-0.38l-0.61-1.31c-0.5-1.12-0.84-1.97-1.01-2.53
			c-0.17-0.56-0.3-1.23-0.38-1.99c-0.06-0.59-0.09-0.96-0.07-1.09s0.11-0.26,0.28-0.39C66.77,12.02,67.24,11.86,67.91,11.75z
			 M69.27,13.32c-0.17-0.03-0.48-0.04-0.94-0.01s-0.71,0.07-0.77,0.13c-0.16,0.22,0.03,1.16,0.56,2.81
			c0.34,1.05,0.56,1.56,0.66,1.55s0.35-0.48,0.77-1.38c0.48-1.09,0.72-1.8,0.7-2.11c-0.02-0.25-0.12-0.46-0.3-0.64
			S69.54,13.37,69.27,13.32z"/>
		<path class="st1" d="M88.56,8.42c0.14-0.12,0.23-0.19,0.26-0.19c0.11,0,0.25,0.09,0.43,0.27s0.27,0.32,0.27,0.43
			c0,0.06-0.13,0.32-0.4,0.77c-0.14,0.22-0.35,0.55-0.63,1.01c-0.09,0.19-0.36,0.6-0.8,1.24c-0.77,1.16-1.13,1.86-1.1,2.11
			c0.02,0.11,0.11,0.2,0.28,0.26c0.2,0.05,0.52,0.07,0.95,0.07s0.73-0.02,0.9-0.07c0.2-0.06,0.55-0.22,1.05-0.47
			c0.48-0.23,0.77-0.35,0.87-0.35c0.11,0,0.23,0.04,0.36,0.13s0.21,0.17,0.22,0.25c0.05,0.12,0.05,0.28,0,0.47s-0.11,0.33-0.19,0.42
			c-0.19,0.22-0.8,0.53-1.83,0.94c-0.2,0.08-0.38,0.12-0.53,0.14s-0.51,0.02-1.09,0c-0.78,0-1.37-0.05-1.76-0.14l-0.56-0.14
			l-0.49,0.47c-0.62,0.64-1.38,1.5-2.27,2.57s-1.42,1.74-1.59,2c-0.03,0.08-0.04,0.13-0.02,0.16s0.09,0.1,0.21,0.21l0.21,0.26
			l-0.05,0.56c-0.02,0.38,0.01,0.63,0.07,0.77c0.06,0.17,0.13,0.41,0.21,0.73c0.08,0.3,0.2,0.52,0.35,0.66
			c0.31,0.28,0.84,0.45,1.57,0.52c0.25,0.02,0.41,0.02,0.48,0s0.14-0.06,0.22-0.14c0.16-0.16,0.27-0.45,0.33-0.88
			s0.11-1.29,0.14-2.57c0.08-1.86,0.16-2.91,0.26-3.14c0.06-0.16,0.18-0.22,0.34-0.2s0.3,0.13,0.41,0.32
			c0.08,0.11,0.12,1.14,0.14,3.08s0.04,2.93,0.07,2.96c0.11,0.11,1.01,0.14,2.71,0.08s2.69-0.14,2.99-0.25
			c0.06-0.03,0.1-0.07,0.11-0.13s0-0.25-0.01-0.57c-0.05-0.72-0.19-1.48-0.42-2.3c-0.14-0.53-0.2-0.88-0.19-1.03
			s0.12-0.27,0.33-0.35c0.19-0.06,0.32-0.09,0.41-0.08s0.18,0.07,0.29,0.2c0.19,0.19,0.41,0.84,0.68,1.95
			c0.25,1.06,0.38,2.05,0.4,2.98c0,0.56-0.03,0.94-0.08,1.12s-0.16,0.32-0.32,0.4c-0.27,0.14-0.62,0.08-1.05-0.19l-0.33-0.21
			l-1.12,0.02c-1.06,0-2.74,0.1-5.04,0.3c-1.34,0.12-2.3,0.12-2.86-0.02c-0.55-0.14-0.98-0.31-1.31-0.52
			c-0.25-0.17-0.47-0.55-0.66-1.12s-0.28-1.23-0.28-1.95c0-0.23-0.02-0.38-0.05-0.45c-0.02-0.03-0.19,0.11-0.52,0.42
			s-0.68,0.66-1.04,1.04s-0.6,0.64-0.69,0.79c-0.11,0.19-0.26,0.32-0.45,0.4c-0.23,0.08-0.45,0.11-0.64,0.08
			c-0.19-0.02-0.32-0.1-0.36-0.22c-0.03-0.12,0.05-0.33,0.26-0.62c0.2-0.29,0.66-0.82,1.38-1.58c1.27-1.34,2.02-2.19,2.25-2.53
			c0.08-0.12,0.28-0.4,0.61-0.82c1.12-1.28,1.97-2.27,2.53-2.95c0.28-0.34,0.4-0.55,0.35-0.61c-0.03-0.05-0.2-0.18-0.52-0.4
			c-0.69-0.44-1.2-1.02-1.55-1.73c-0.38-0.73-0.56-1.43-0.56-2.09c0-0.56,0.09-0.91,0.28-1.05c0.22-0.14,0.47-0.13,0.75,0.02
			c0.09,0.06,0.16,0.16,0.21,0.28s0.11,0.38,0.19,0.77c0.12,0.73,0.48,1.4,1.08,1.99c0.53,0.53,0.95,0.8,1.27,0.8
			c0.17,0,0.39-0.19,0.66-0.56c0.38-0.59,0.56-0.95,0.56-1.08c0-0.03-0.12-0.12-0.38-0.26c-0.23-0.11-0.5-0.3-0.79-0.57
			s-0.48-0.52-0.57-0.74l-0.14-0.26l0.16-0.33c0.16-0.31,0.34-0.45,0.56-0.42s0.52,0.24,0.91,0.63c0.44,0.45,0.62,0.82,0.56,1.1
			l-0.02,0.19l0.16-0.19c0.11-0.12,0.29-0.38,0.54-0.77C87.87,9.33,88.36,8.63,88.56,8.42z M82.49,4.98
			c0.19-0.06,0.45-0.05,0.8,0.02c0.61,0.14,1.24,0.47,1.9,0.98l0.52,0.42l2.27,0.05c2.02,0.03,3.33,0.09,3.95,0.16
			s1.23,0.27,1.84,0.59c0.48,0.22,0.76,0.4,0.82,0.54s-0.01,0.37-0.21,0.7c-0.12,0.19-0.35,0.45-0.68,0.77s-0.59,0.54-0.77,0.63
			c-0.12,0.08-0.21,0.12-0.26,0.13s-0.1-0.01-0.16-0.06c-0.23-0.14-0.29-0.43-0.16-0.87c0.08-0.25,0.12-0.42,0.12-0.52
			s-0.04-0.16-0.12-0.19c-0.28-0.11-1.21-0.2-2.79-0.27s-2.7-0.07-3.35,0.01c-1.53,0.16-3.27,0.31-5.23,0.47
			c-1.48,0.09-2.29,0.16-2.41,0.19C78.35,8.78,78.2,8.86,78.11,9s-0.23,0.46-0.42,0.97c-0.23,0.67-0.42,1.01-0.56,1.01
			c-0.16,0-0.27-0.16-0.33-0.49s-0.05-0.68,0.02-1.05c0.09-0.42,0.28-0.86,0.55-1.31c0.27-0.45,0.56-0.77,0.86-0.96l0.26-0.19
			l0.56,0.05c0.39,0.05,0.9,0.06,1.52,0.05c1.86-0.08,2.79-0.19,2.79-0.33c0-0.05-0.06-0.11-0.19-0.19
			C83,6.42,82.78,6.23,82.52,5.96c-0.28-0.27-0.42-0.45-0.42-0.56C82.09,5.2,82.23,5.06,82.49,4.98z M80.45,9.99
			c0.12,0.12,0.18,0.29,0.15,0.48s-0.14,0.53-0.36,1c-0.23,0.55-0.42,1.12-0.56,1.71c-0.16,0.77-0.28,1.23-0.38,1.39
			s-0.28,0.25-0.56,0.25c-0.2,0-0.32-0.04-0.34-0.12s0-0.34,0.06-0.8c0.17-1.47,0.34-2.52,0.52-3.14c0.12-0.52,0.35-0.82,0.68-0.93
			S80.25,9.79,80.45,9.99z M90.32,10.65c0.17-0.11,0.52-0.05,1.03,0.16c0.42,0.19,0.84,0.45,1.27,0.79s0.67,0.61,0.75,0.81
			c0.06,0.16,0.03,0.34-0.11,0.55s-0.29,0.32-0.46,0.32c-0.2,0-0.69-0.27-1.45-0.82s-1.19-0.93-1.27-1.15
			c-0.05-0.11-0.04-0.23,0.02-0.36S90.24,10.71,90.32,10.65z"/>
		<path class="st1" d="M103.98,7.72c0.62-0.08,1.36-0.13,2.2-0.16s1.33-0.02,1.45,0.02c0.22,0.05,0.35,0.3,0.4,0.75
			c0.03,0.25,0.01,0.42-0.07,0.5s-0.27,0.15-0.56,0.2c-0.39,0.05-1.1,0.1-2.13,0.16l-1.64,0.09l-0.21,0.26
			c-0.38,0.47-0.78,1.19-1.22,2.17s-0.8,1.96-1.1,2.96c-0.12,0.42-0.17,0.66-0.14,0.7c0.09,0.09,0.87,0.12,2.32,0.09
			c0.66-0.02,1.3-0.02,1.95,0c0.47,0.02,0.77,0.04,0.89,0.06s0.27,0.07,0.45,0.15c0.53,0.22,0.94,0.57,1.22,1.07s0.41,1.04,0.4,1.63
			c-0.03,0.5-0.25,1.18-0.66,2.04c-0.58,1.2-1.02,2.01-1.34,2.41l-0.26,0.3l-1.97,0.07c-1.33,0.08-2.16,0.13-2.51,0.16
			c-0.31,0.03-0.54,0.03-0.68,0s-0.27-0.11-0.4-0.23c-0.14-0.16-0.25-0.65-0.33-1.48c-0.12-1.22-0.28-1.85-0.47-1.9
			c-0.08-0.02-0.2,0.39-0.38,1.22c-0.14,0.66-0.35,1.05-0.63,1.17c-0.05,0.02-0.08-0.02-0.09-0.09s-0.03-0.38-0.05-0.91l-0.02-1.08
			l0.98-3.26c0.67-2.2,1.23-3.96,1.69-5.27c0.45-1.33,0.66-2.01,0.61-2.04c-0.03-0.02-0.28-0.03-0.75-0.05
			c-0.61-0.03-1.05-0.08-1.32-0.15s-0.46-0.2-0.55-0.39c-0.14-0.17-0.16-0.36-0.05-0.56s0.3-0.34,0.59-0.42
			c0.2-0.08,0.52-0.1,0.94-0.07C101.46,7.92,102.61,7.88,103.98,7.72z M103.82,17.09c-1.12-0.05-1.95-0.02-2.48,0.07
			c-0.25,0.03-0.44,0.24-0.56,0.63c-0.08,0.3-0.05,0.88,0.07,1.73c0.19,1.27,0.35,1.97,0.49,2.11c0.06,0.09,0.27,0.14,0.61,0.14
			c0.31,0.02,0.84-0.01,1.58-0.08s1.22-0.12,1.44-0.15c0.22-0.05,0.41-0.16,0.56-0.33c0.27-0.27,0.5-0.66,0.71-1.17
			s0.32-0.94,0.32-1.27c-0.02-0.61-0.21-1.03-0.6-1.27S104.87,17.14,103.82,17.09z M108.13,21.01c0.17-0.11,0.34-0.14,0.5-0.11
			s0.3,0.16,0.41,0.36c0.16,0.28,0.38,1.18,0.68,2.7c0.06,0.31,0.06,0.55,0,0.7c-0.11,0.25-0.29,0.37-0.53,0.35
			s-0.46-0.16-0.67-0.42c-0.17-0.22-0.33-0.59-0.48-1.1s-0.24-1-0.27-1.45c-0.02-0.34,0-0.57,0.05-0.69S107.98,21.12,108.13,21.01z
			 M109.77,5.77l0.26-0.4l4.22-0.09c2.06-0.08,3.3-0.11,3.71-0.11s0.71,0.04,0.9,0.08c0.77,0.23,0.98,0.62,0.63,1.17l-0.16,0.26
			l-1.73,0.07l-1.78,0.09l-0.09,0.19c-0.14,0.2-0.23,0.69-0.26,1.45v0.47l1.59-0.07l1.59-0.07l0.3,0.14
			c0.19,0.12,0.32,0.24,0.4,0.35s0.12,0.27,0.14,0.47c-0.02,0.27-0.09,0.43-0.23,0.5s-0.66,0.16-1.55,0.27
			c-1.23,0.16-1.98,0.29-2.23,0.4c-0.09,0.06-0.16,0.12-0.19,0.18s-0.06,0.15-0.09,0.29c-0.11,0.61-0.16,1.05-0.14,1.34v0.26
			l1.69-0.05c1.72-0.06,2.66-0.03,2.81,0.09c0.14,0.12,0.21,0.31,0.22,0.56s-0.07,0.43-0.22,0.54c-0.19,0.16-0.98,0.31-2.39,0.47
			c-0.78,0.09-1.3,0.17-1.55,0.22s-0.42,0.15-0.52,0.29c-0.12,0.19-0.18,0.87-0.16,2.04l0.02,0.68l0.91-0.02
			c0.56-0.02,1.18-0.02,1.85,0c0.42,0.02,0.7,0.04,0.83,0.06s0.3,0.07,0.5,0.15c0.28,0.14,0.56,0.33,0.83,0.57s0.47,0.5,0.6,0.76
			c0.22,0.44,0.35,0.95,0.4,1.54s0,1.11-0.14,1.58c-0.19,0.69-0.5,1.36-0.93,2s-0.82,1.02-1.16,1.11c-0.41,0.11-0.71,0.07-0.91-0.12
			c-0.14-0.11-0.19-0.23-0.15-0.38s0.19-0.39,0.46-0.75c0.44-0.62,0.74-1.18,0.91-1.66c0.17-0.45,0.23-0.98,0.19-1.57
			c-0.05-0.55-0.26-1.02-0.63-1.41c-0.16-0.2-0.32-0.32-0.5-0.35s-0.61-0.05-1.3-0.05c-0.88-0.02-1.48-0.06-1.83-0.13
			s-0.61-0.18-0.8-0.34c-0.17-0.16-0.28-0.33-0.33-0.53s-0.09-0.76-0.12-1.7c-0.05-1.16-0.09-1.74-0.14-1.76
			c-0.14-0.05-0.92,0.05-2.34,0.3l-0.75,0.12l0.02,1.59c0,1.09-0.02,1.73-0.05,1.92c-0.05,0.3-0.14,0.5-0.27,0.6
			s-0.27,0.07-0.41-0.08c-0.09-0.14-0.16-0.5-0.2-1.08s-0.08-1.74-0.13-3.49c-0.05-1.64-0.07-2.8-0.06-3.47s0.06-1.66,0.15-2.98
			c0.06-0.7,0.09-1.24,0.07-1.62c-0.02-0.28-0.01-0.46,0.01-0.54S109.66,5.96,109.77,5.77z M113.5,10.84
			c-0.05-0.06-0.09-0.09-0.13-0.09s-0.14,0.02-0.32,0.07c-0.16,0.03-0.52,0.08-1.09,0.14s-0.99,0.09-1.25,0.09l-0.38,0.02v1.31
			l0.02,1.27c0.02,0.02,0.91-0.1,2.7-0.35l0.63-0.12v-0.87C113.7,11.47,113.64,10.98,113.5,10.84z M110.85,21.08
			c0.39-0.36,0.73-0.23,1.01,0.4c0.2,0.45,0.38,1.13,0.54,2.04l0.09,0.49l-0.19,0.16c-0.11,0.09-0.27,0.14-0.47,0.14
			c-0.19-0.03-0.33-0.1-0.42-0.21c-0.16-0.14-0.32-0.48-0.5-1.03s-0.28-1-0.29-1.36c0-0.2,0.01-0.34,0.04-0.4
			S110.74,21.17,110.85,21.08z M113.95,6.81c-0.14-0.05-0.74-0.01-1.8,0.12c-0.38,0.06-0.64,0.14-0.8,0.23s-0.29,0.24-0.4,0.45
			c-0.14,0.34-0.23,0.7-0.27,1.08s-0.01,0.61,0.08,0.7c0.06,0.06,0.27,0.09,0.63,0.07c0.91-0.06,1.6-0.2,2.09-0.4
			c0.22-0.08,0.37-0.22,0.46-0.42s0.14-0.6,0.15-1.2c0.02-0.25,0.01-0.41-0.01-0.48S114.01,6.84,113.95,6.81z M113.5,20.7
			c0.08-0.08,0.2-0.12,0.35-0.12s0.28,0.05,0.38,0.14c0.12,0.12,0.3,0.51,0.53,1.16s0.34,1.09,0.34,1.32c0,0.14-0.06,0.27-0.19,0.38
			c-0.19,0.2-0.44,0.23-0.75,0.07c-0.23-0.12-0.4-0.29-0.49-0.49s-0.18-0.58-0.26-1.12C113.33,21.31,113.36,20.86,113.5,20.7z
			 M115.96,20.77c0.06-0.08,0.14-0.12,0.23-0.12c0.3,0,0.54,0.09,0.73,0.28c0.22,0.22,0.41,0.61,0.56,1.18s0.17,0.95,0.05,1.14
			c-0.05,0.08-0.18,0.12-0.39,0.14s-0.37,0-0.48-0.05c-0.2-0.11-0.41-0.59-0.61-1.45C115.88,21.31,115.85,20.93,115.96,20.77z"/>
	</g>
</g>
<g>
</g>
<g>
</g>
<g>
</g>
<g>
</g>
<g>
</g>
<g>
</g>
</svg>
